<svg viewBox="0 0 579 626" xmlns="http://www.w3.org/2000/svg" fill-rule="evenodd" clip-rule="evenodd" stroke-linejoin="round" stroke-miterlimit="1.414"><path d="M210.353 607.217c-.34-2.106-.842-4.303-1.491-6.591-1.537-5.441-4.918-10.074-9.506-13.854a38.128 38.128 0 00-3.88-2.823c-5.293-3.381-11.692-5.851-18.522-7.32a72.21 72.21 0 00-14.139-1.593c-34.662-.774-56.234.387-90.373-.911.012.023.012.046.022.068a105.33 105.33 0 004.782 3.643 117.357 117.357 0 0011.155 7.127 116.164 116.164 0 0022.859 9.801c.956.295 1.912.58 2.87.842 5.6.603 10.631 1.206 14.648 3.074a15.72 15.72 0 012.835 1.639c2.87 2.106 6.057 6.124 8.152 8.936 4.497 5.999 3.551 10.928 8.88 13.887.557.308 1.182.604 1.889.866 1.696.638 4.119 1.491 5.225-.91.16-.342.283-.764.387-1.264-.446-1.434-1.981-2.675-2.905-3.29-1.638-1.07-2.287-1.719-3.47-2.937-2.186-2.243-2.333-6.056-3.871-8.708 1.935-.82 12.146-2.186 14.287-1.89 4.576.204 8.185.557 10.939 3.392 1.08.854 1.672 1.594 2.652 2.334.069.057.125.114.194.159 4.338 3.153 8.343 4.28 11.894 5.362.936.284 1.822.558 2.69.876 1.332.478 2.582 1.048 3.754 1.81 1.39.922 3.748 3.336 3.849 5.419-3.496-1.116-1.185.296-6.342-.102-2.515-.285-5.087-.456-7.671-.638-4.018-.284-8.038-.581-11.805-1.297a34.525 34.525 0 01-1.867-.399 23.884 23.884 0 01-1.401-.353 9.837 9.837 0 00-.021.546c-.104 3.939 2.674 5.908-3.678 13.399-.057.08-.137.159-.205.25-1.686 1.97-10.449 5.715-13.182 6.432-11.634 2.334-20.502-5.237-34.515-1.423-4.929 1.833-8.549 9.824-10.815 15.8-3.016 7.936-5.406 17.576-8.139 27.06a115.357 115.357 0 0015.585-3.427 116.383 116.383 0 0031.168-14.445c.911-1.231 1.912-2.29 2.994-3.108.284-.217.58-.422.877-.603.215-.137.956-.286 2.127-.502 10.861-1.924 58.5-8.377 61.597-42.962.319-3.494.172-7.285-.513-11.372zm-106.936 18.59c-6.375-1.924-8.003-2.243-12.055-5.385.067.33.17.695.307 1.081a115.513 115.513 0 0035.141 12.842c-3.893-9.051-8.502-7.445-23.393-8.538zm29.518-4.099c-2.779-6.738-10.313-10.575-16.813-12.464-8.721-3.12-15.061-.125-33.458-8.811.147.239.284.467.432.694a115.046 115.046 0 0011.157 7.126 116.116 116.116 0 0022.857 9.802c4.167.489 8.175 1.184 11.863 2.96a20.924 20.924 0 014.702 3.039 14.323 14.323 0 00-.74-2.346z" fill="url(#_Linear1)" fill-rule="nonzero" transform="translate(-301.271 -2392.19) scale(4.16667)"/><path d="M174.271 89.504c-3.992-1.092-7.975-2.28-11.958-3.509a484.017 484.017 0 01-95.246-40.837c-16.075-9.063-31.592-18.93-46.48-29.696C13.805 10.579 7.164 5.549.664.282c8.916 27.513 48.475 56.542 75.325 67.972 34.241 14.562 68.254 17.929 98.283 21.25zM91.45 142.2a479.358 479.358 0 01-46.487-29.692c41.691 65.93 94.062 64.933 141.725 70.533A483.816 483.816 0 0191.45 142.2zM227.104 250.916c-52.22-9.916-101.508-28.225-146.42-53.508 5.733 16.554 26.462 42.737 53.929 48.575 11.908 4.267 8.725 3.175 29.029 2.558 29.737-1.516 43.967-2.466 65.033 6.121a262.521 262.521 0 00-1.57-3.746zM295.692 381.829c-.338.42-.663.85-.996 1.325-57.683 58.72-129.912 102.875-210.792 126.637 6.217-17.216 11.767-35.283 16.984-53.495 22.204-3.321 43.875-8.067 64.937-14.28 46.53-13.662 90.213-34.104 129.867-60.187z" fill="#90d4d1"/><path d="M294.696 383.154c-25.192 34.53-37.992 100.508-52.746 138.642-21.433 55.591-51.225 95.625-116.491 101.32-16.367 1.463-114.926 5.167-125.459-.145.663-5.6 17.075-12.338 21.346-15.613 28.55-20.196 47.567-56.25 62.558-97.567 80.88-23.762 153.109-67.916 210.792-126.637z" fill="#14a0c4"/><defs><linearGradient id="_Linear1" x1="0" y1="0" x2="1" y2="0" gradientUnits="userSpaceOnUse" gradientTransform="translate(72.442 628.88) scale(138.584)"><stop offset="0%" stop-color="#54c4c6"/><stop offset="100%" stop-color="#12bad5"/></linearGradient></defs></svg>