<?xml version="1.0" standalone="no"?>
<!DOCTYPE svg PUBLIC "-//W3C//DTD SVG 1.1//EN" "http://www.w3.org/Graphics/SVG/1.1/DTD/svg11.dtd">
<svg xmlns="http://www.w3.org/2000/svg">
<defs >
<font id="YanoneKaffeesatz" horiz-adv-x="384" ><font-face
    font-family="Yanone Kaffeesatz"
    units-per-em="1000"
    panose-1="0 0 5 0 0 0 0 0 0 0"
    ascent="957"
    descent="-200"
    alphabetic="0" />
<glyph unicode=" " glyph-name="space" horiz-adv-x="158" />
<glyph unicode="!" glyph-name="exclam" horiz-adv-x="195" d="M45 683Q45 694 53 699T83 705T155 706L139 251Q138 233 131 226T109 216T59 213L45 683ZM68 -7T55 7T42 50Q42 74 57 91T97 108Q153 108 153 50Q153 26 138 10T97 -7Q68 -7 55 7Z" />
<glyph unicode="&quot;" glyph-name="quotedbl" horiz-adv-x="263" d="M42 607T37 667T31 760Q31 781 34 782Q41 786 65 786Q95 786 110 783Q110 740 103 665T89 586Q82 585 67 584T45 583Q42 607 37 667ZM166 590T160 659T153 761Q153 781 156 782Q163 786 187
786Q218 786 233 783Q233 742 225 666T212 586Q205 585 190 584T168 583Q166 590 160 659Z" />
<glyph unicode="#" glyph-name="numbersign" horiz-adv-x="418" d="M323 254H390Q390 213 388 202T374 190H320L316 123Q315 112 302 110T245 107L249 190H154L150 123Q149 112 136 110T79 107L83 190H28Q28 232 30 243T44 254H87L92 360H28Q28 402 30 413T44
424H96L99 487Q100 498 114 500T170 503L166 424H262L265 487Q266 498 280 500T336 503L332 424H390Q390 383 388 372T374 360H328L323 254ZM157 254H253L258 360H162L157 254Z" />
<glyph unicode="$" glyph-name="dollar" horiz-adv-x="418" d="M363 20T237 -4V-91Q237 -110 221 -116T164 -122V-7Q128 -5 103 2T66 19T53 37Q53 46 59 68T74 102Q111 72 181 72Q228 72 251 94T274 158Q274 186 262 208T219 264L107 377Q53 434 53 488Q53 542
86 574T181 615V704Q181 724 198 730T254 737V616Q304 613 330 602T357 581Q357 569 352 553T337 525Q326 533 299 539T239 546Q142 546 142 489Q142 469 152 452T185 409L306 288Q336 258 349 227T363 157Q363 20 237 -4Z" />
<glyph unicode="%" glyph-name="percent" horiz-adv-x="692" d="M162 -7T150 -3T127 8T116 23L520 709Q523 708 534 703T555 691T565 674Q565 667 397 382T166 -8Q162 -7 150 -3ZM132 339T104 353T60 408T45 525Q45 618 81 663T186 708Q233 708 261 692T304 636T319
526Q319 339 180 339Q132 339 104 353ZM212 402T228 430T245 525Q245 574 239 600T220 636T186 646Q154 646 138 619T122 523Q122 473 128 447T148 412T182 402Q212 402 228 430ZM460 -9T431 5T387 60T372 177Q372 270 408 315T514 360Q561 360 589 344T632 288T647
178Q647 -9 508 -9Q460 -9 431 5ZM539 52T555 80T572 175Q572 224 566 250T548 286T513 296Q481 296 465 269T448 173Q448 123 454 97T474 62T509 52Q539 52 555 80Z" />
<glyph unicode="&amp;" glyph-name="ampersand" horiz-adv-x="502" d="M458 70T488 55Q485 31 468 11T435 -10Q420 -10 362 54Q306 -10 212 -10Q27 -10 27 170Q27 229 59 278T139 358Q61 494 61 568Q61 636 104 671T228 706Q293 706 335 692T377 659Q377 644 372
627T357 600Q330 619 301 627T237 635Q193 635 170 620T146 558Q146 508 205 405T343 201Q351 241 351 291Q351 423 291 496Q332 504 405 504Q447 504 483 501Q483 499 484 490T485 472Q485 453 477 444T443 435L394 436Q411 405 420 374T429 281Q429 194 404 129Q458
70 488 55ZM272 66T309 115Q242 196 174 300Q110 254 110 168Q110 124 133 95T207 66Q272 66 309 115Z" />
<glyph unicode="&apos;" glyph-name="quotesingle" horiz-adv-x="141" d="M42 607T37 667T31 760Q31 781 34 782Q41 786 65 786Q95 786 110 783Q110 740 103 665T89 586Q82 585 67 584T45 583Q42 607 37 667Z" />
<glyph unicode="(" glyph-name="parenleft" horiz-adv-x="292" d="M212 -196T172 -135T99 43T65 320Q65 470 98 578T172 744T226 803Q246 803 255 792T271 752Q218 680 183 573T147 318Q147 211 166 119T213 -38T271 -136Q265 -166 256 -181T227 -196Q212 -196 172 -135Z" />
<glyph unicode=")" glyph-name="parenright" horiz-adv-x="292" d="M47 -196T37 -181T21 -136Q71 -70 108 44T145 318Q145 460 110 573T21 752Q28 781 37 792T66 803Q79 803 119 746T193 581T227 320Q227 168 194 52T120 -130T65 -196Q47 -196 37 -181Z" />
<glyph unicode="*" glyph-name="asterisk" horiz-adv-x="470" d="M199 667Q198 678 206 683T229 688Q256 688 278 677L258 519Q256 510 252 506T239 501Q231 501 221 504L199 667ZM269 469T269 478Q269 489 282 495L431 575Q441 566 447 551T454 521Q454 498 439
494L280 455Q269 469 269 478ZM16 503Q15 532 29 551T60 570Q63 570 69 568L199 487Q200 470 194 463T175 459L16 503ZM249 404Q246 410 246 414Q246 424 271 434L386 299Q390 294 390 288Q390 274 370 261T327 245L249 404ZM130 250T120 250Q107 250 92 266T66
300L187 423Q195 431 202 431Q212 431 224 415L136 259Q130 250 120 250Z" />
<glyph unicode="+" glyph-name="plus" horiz-adv-x="418" d="M384 317Q384 275 382 261T368 247H245V123Q245 112 231 110T174 107V247H34Q34 290 36 303T51 317H174V441Q174 452 188 454T245 457V317H384Z" />
<glyph unicode="," glyph-name="comma" horiz-adv-x="183" d="M43 -103T38 -80Q54 -53 59 -36T67 5Q43 21 43 54Q43 77 57 91T94 106Q148 106 148 47Q148 13 133 -21T99 -79T70 -103Q43 -103 38 -80Z" />
<glyph unicode="-" glyph-name="hyphen" horiz-adv-x="278" d="M37 290T39 303T54 317H241Q241 275 239 261T225 247H37Q37 290 39 303Z" />
<glyph unicode="." glyph-name="period" horiz-adv-x="183" d="M63 -6T50 8T37 51Q37 75 52 91T93 108Q148 108 148 51Q148 26 133 10T93 -6Q63 -6 50 8Z" />
<glyph unicode="/" glyph-name="slash" horiz-adv-x="334" d="M235 743Q238 754 243 758T265 763T324 765L99 0Q96 -10 91 -14T69 -19T10 -20L235 743Z" />
<glyph unicode="0" glyph-name="zero" horiz-adv-x="418" d="M107 -9T68 65T29 296Q29 448 72 524T211 600Q306 600 347 532T389 320Q389 151 348 71T206 -9Q107 -9 68 65ZM260 64T282 124T305 321Q305 428 285 478T215 529Q160 529 138 469T116 290Q116 206 124
157T153 86T208 64Q260 64 282 124Z" />
<glyph unicode="1" glyph-name="one" horiz-adv-x="418" d="M28 32T28 56Q28 67 72 71T173 76L184 517Q163 516 123 509T70 499Q58 519 58 552Q58 558 97 569T183 590T247 600Q263 600 270 595L257 76H331Q353 76 368 77T389 79Q389 32 387 16T373 0H30Q28 32 28 56Z" />
<glyph unicode="2" glyph-name="two" horiz-adv-x="418" d="M29 11T29 25Q29 45 33 56T54 96Q76 133 102 167T167 247Q227 317 255 362T283 454Q283 523 206 523Q166 523 125 513T59 488Q49 511 49 547Q49 559 73 571T139 592T226 600Q309 600 341 567T374 464Q374
403 342 349T243 217Q171 131 136 76H271Q304 76 341 79T389 83Q389 34 386 17T372 0H33Q29 11 29 25Z" />
<glyph unicode="3" glyph-name="three" horiz-adv-x="418" d="M99 -100T72 -86T44 -51Q44 -27 49 -11T55 9Q90 -23 153 -23Q218 -23 254 25T291 150Q291 209 248 231T132 254L130 305Q194 336 228 376T263 458Q263 486 248 504T191 523Q111 523 53 487Q43 507
43 546Q43 559 64 571T125 592T216 600Q290 600 322 568T355 482Q355 380 245 301Q305 295 341 259T378 152Q378 71 349 15T269 -71T152 -100Q99 -100 72 -86Z" />
<glyph unicode="4" glyph-name="four" horiz-adv-x="418" d="M235 131H54Q28 157 28 202Q28 227 65 311T152 478T237 592Q254 606 273 606Q297 606 319 595L316 206Q344 206 364 207T390 209Q391 208 392 202T394 186Q394 162 388 147T367 131H316V26Q316 12 313
7T295 1T235 0V131ZM235 206L247 495Q208 450 161 361T98 206H235Z" />
<glyph unicode="5" glyph-name="five" horiz-adv-x="418" d="M111 -100T85 -93T47 -77T34 -59Q34 -19 43 7Q78 -25 141 -25Q218 -25 256 33T294 178Q294 259 255 289T139 319Q100 319 42 306L71 600H377Q377 568 375 554T363 534T335 528Q291 528 229 529T140
532L124 381Q159 386 187 386Q380 386 380 194Q380 56 322 -22T148 -100Q111 -100 85 -93Z" />
<glyph unicode="6" glyph-name="six" horiz-adv-x="418" d="M313 439T352 392T391 245Q391 -8 202 -8Q128 -8 91 29T43 132T31 308Q31 702 259 702Q306 702 336 694T367 668Q367 636 359 611Q317 626 265 626Q119 626 108 367Q132 403 165 421T246 439Q313 439
352 392ZM255 64T283 110T312 228Q312 295 289 330T223 365Q157 365 108 290V284Q106 169 129 117T205 64Q255 64 283 110Z" />
<glyph unicode="7" glyph-name="seven" horiz-adv-x="418" d="M115 -88T98 -84T80 -66Q93 35 128 149T208 365T294 531Q220 527 67 527Q45 527 45 600H405Q303 403 242 238T163 -88Q115 -88 98 -84Z" />
<glyph unicode="8" glyph-name="eight" horiz-adv-x="418" d="M362 293T377 259T392 182Q392 99 347 46T218 -8Q123 -8 78 45T32 183Q32 245 63 295T146 376Q101 407 81 429Q60 448 50 475T39 534Q39 617 87 661T210 706Q387 706 387 544Q387 485 358 444T279
369Q317 339 333 323Q362 293 377 259ZM176 630T148 608T119 539Q119 489 159 457Q180 438 219 411Q313 469 313 541Q313 585 286 607T220 630Q176 630 148 608ZM259 69T286 100T313 183Q313 220 302 243T268 286Q248 307 210 333Q163 309 135 272T107 188Q107
133 135 101T213 69Q259 69 286 100Z" />
<glyph unicode="9" glyph-name="nine" horiz-adv-x="418" d="M288 609T324 580T373 486T389 297Q387 92 327 -6T138 -104Q98 -104 74 -96T49 -71Q49 -58 51 -43T56 -17Q89 -27 129 -27Q220 -27 261 39T310 229Q286 193 254 175T174 157Q109 157 69 209T28 358Q28
485 75 547T217 609Q288 609 324 580ZM263 231T312 306V310Q312 392 305 439T278 512T218 537Q165 537 136 495T107 368Q107 302 131 267T198 231Q263 231 312 306Z" />
<glyph unicode=":" glyph-name="colon" horiz-adv-x="183" d="M63 329T51 343T38 386Q38 410 53 426T93 443Q149 443 149 386Q149 361 134 345T93 329Q63 329 51 343ZM63 -6T51 8T38 51Q38 75 53 91T93 108Q149 108 149 51Q149 26 134 10T93 -6Q63 -6 51 8Z" />
<glyph unicode=";" glyph-name="semicolon" horiz-adv-x="183" d="M61 329T49 343T36 386Q36 410 51 426T91 443Q147 443 147 386Q147 361 132 345T91 329Q61 329 49 343ZM39 -103T34 -80Q50 -54 55 -37T63 5Q39 21 39 54Q39 77 53 91T90 106Q144 106 144 47Q144
13 129 -21T95 -79T66 -103Q39 -103 34 -80Z" />
<glyph unicode="&lt;" glyph-name="less" horiz-adv-x="400" d="M318 96T297 103L52 211Q39 234 39 258Q39 289 65 302L329 430Q342 418 349 404T357 377Q357 359 343 353L144 255L360 159Q359 134 348 115T324 96Q318 96 297 103Z" />
<glyph unicode="=" glyph-name="equal" horiz-adv-x="418" d="M34 382T36 396T51 410H384Q384 367 382 353T368 339H34Q34 382 36 396ZM34 197T36 210T51 224H384Q384 182 382 168T368 154H34Q34 197 36 210Z" />
<glyph unicode="&gt;" glyph-name="greater" horiz-adv-x="400" d="M62 97T55 112T46 139Q46 157 60 164L260 261L43 358Q44 383 56 401T80 420Q90 420 107 413L351 305Q364 285 364 258Q364 227 338 214L74 85Q62 97 55 112Z" />
<glyph unicode="?" glyph-name="question" horiz-adv-x="295" d="M92 210T89 219T82 244T79 278Q79 319 97 351Q109 374 124 396T143 424Q171 465 184 491T197 552Q197 629 115 629Q66 629 31 603Q19 639 19 667Q19 684 58 697T144 710Q209 710 246 675T283 570Q283
512 264 473T209 384Q182 350 172 330Q160 309 160 283Q160 271 165 243Q167 234 168 227T166 217Q156 206 120 206Q109 206 93 208Q92 210 89 219ZM100 -6T88 8T75 51Q75 75 90 91T130 108Q186 108 186 51Q186 26 171 10T130 -6Q100 -6 88 8Z" />
<glyph unicode="@" glyph-name="at" horiz-adv-x="738" d="M442 -112T496 -101T602 -68Q623 -100 623 -126Q623 -141 592 -156T505 -180T375 -190Q268 -190 199 -159T89 -29T47 264Q47 479 139 581T394 683Q545 683 619 608T693 359Q693 145 644 74T533 2Q498
2 471 25Q459 15 429 8T358 1Q319 1 293 12T252 57T237 151Q237 318 365 318Q403 318 423 307Q423 313 424 330T425 368Q426 401 411 413T364 426Q333 426 310 421T264 402Q256 419 256 448Q256 459 265 468Q281 479 312 486T391 494Q448 494 475 468T501 378L496
177Q494 104 491 78Q508 72 524 72Q545 72 564 98T597 184T610 338Q610 441 590 500T523 585T393 611Q303 611 246 578T159 466T129 253Q129 106 155 27T233 -82T369 -112Q442 -112 496 -101ZM423 258Q402 261 388 261Q352 261 333 236T314 147Q314 98 327 80T368
62Q390 62 404 74T419 114L423 258Z" />
<glyph unicode="A" glyph-name="A" horiz-adv-x="437" d="M433 6T426 2T396 -2Q369 -2 348 0L306 178H132L93 14Q90 5 84 2T55 -2Q34 -2 5 1L184 689Q187 703 214 703Q237 703 252 700L431 15Q433 6 426 2ZM288 251L254 395Q225 517 219 588Q208 499 183 395L149
251H288Z" />
<glyph unicode="B" glyph-name="B" horiz-adv-x="377" d="M44 681Q44 691 49 695T70 700H169Q337 700 337 546Q337 470 308 430T242 384Q289 381 324 350T360 238Q360 118 307 59T170 0H44V681ZM175 414Q209 414 229 443T249 530Q249 629 175 629H125V414H175ZM171
71Q212 71 238 110T265 231Q265 280 254 305T223 337T172 345H125V71H171Z" />
<glyph unicode="C" glyph-name="C" horiz-adv-x="341" d="M142 -10T107 13T51 109T30 321Q30 480 59 566T130 681T227 710Q277 710 299 694T321 655Q321 628 308 606Q277 631 243 631Q206 631 178 608T133 517T115 325Q115 227 127 173T161 99T215 79Q243 79 268
88T308 111Q320 85 320 62Q320 32 285 11T196 -10Q142 -10 107 13Z" />
<glyph unicode="D" glyph-name="D" horiz-adv-x="388" d="M44 681Q44 691 50 695T71 700H169Q237 700 279 672T342 575T364 386Q364 242 342 158T276 37T169 0H44V681ZM171 77Q201 77 223 100T259 193T273 394Q273 485 262 535T229 606T171 626H125V77H171Z" />
<glyph unicode="E" glyph-name="E" horiz-adv-x="320" d="M125 73H297Q297 44 297 26T293 4T281 0H45V684Q45 688 48 694T61 700H301Q301 672 301 654T297 632T286 627H125V418H276Q276 391 276 373T272 350T261 344H125V73Z" />
<glyph unicode="F" glyph-name="F" horiz-adv-x="313" d="M301 700Q301 672 301 656T297 635T286 631H125V418H276Q276 391 276 373T272 350T261 344H125V16Q125 11 123 6T110 0H45V684Q45 688 48 694T61 700H301Z" />
<glyph unicode="G" glyph-name="G" horiz-adv-x="386" d="M148 -10T108 18T49 121T30 334Q30 485 55 567T127 679T245 710Q293 710 322 695T352 659Q352 635 341 607Q327 618 306 624T261 631Q208 631 177 605T131 515T116 340Q116 225 128 167T162 89T220 69Q244
69 259 77T280 94V343H205V394Q205 410 224 410H355V35Q301 -10 218 -10Q148 -10 108 18Z" />
<glyph unicode="H" glyph-name="H" horiz-adv-x="410" d="M365 7T362 4T339 1T285 0V339H125V16Q125 7 122 4T98 1T44 0V684Q44 693 47 696T71 699T125 700V415H285V684Q285 693 288 696T311 699T365 700V16Q365 7 362 4Z" />
<glyph unicode="I" glyph-name="I" horiz-adv-x="169" d="M44 663Q44 683 48 690T66 698T126 700V16Q126 7 122 4T98 1T44 0V663Z" />
<glyph unicode="J" glyph-name="J" horiz-adv-x="300" d="M63 -9T39 8T14 50Q14 64 17 73T26 96Q41 82 63 73T109 63Q138 63 151 76T169 114T174 183V663Q174 684 177 690T195 698T256 700V165Q256 82 226 37T119 -9Q63 -9 39 8Z" />
<glyph unicode="K" glyph-name="K" horiz-adv-x="389" d="M371 701T371 686Q371 682 368 677L206 398Q326 307 367 18Q368 6 362 2T334 -2Q308 -2 278 1Q254 128 229 201T164 318Q151 333 124 345V16Q124 7 121 4T97 1T42 0V684Q42 693 45 696T69 699T124 700V398L284
695Q313 701 335 701Q371 701 371 686Z" />
<glyph unicode="L" glyph-name="L" horiz-adv-x="314" d="M44 677Q44 690 48 694T66 699T125 700V76H297V16Q297 7 293 4T281 0H44V677Z" />
<glyph unicode="M" glyph-name="M" horiz-adv-x="489" d="M445 700V16Q445 7 442 4T418 1T363 0L366 245Q368 310 375 410T385 546L368 486Q329 342 319 315L266 161Q263 153 255 153H220L168 315Q155 354 104 541L103 540Q106 509 113 412T121 249L123 16Q123
7 119 4T95 1T44 0V684Q44 694 48 697T60 700H118L214 396Q225 362 234 330T246 285Q249 297 257 329T275 393L364 684Q367 693 370 696T380 700H445Z" />
<glyph unicode="N" glyph-name="N" horiz-adv-x="444" d="M320 693T324 696T348 699T401 700V16Q401 0 384 0H324L209 275Q185 339 114 560Q118 517 121 416T124 259V16Q124 7 121 4T97 1T44 0V684Q44 700 60 700H121L234 430Q247 395 308 211Q312 199 330 146V149Q325
188 323 290T320 448V684Q320 693 324 696Z" />
<glyph unicode="O" glyph-name="O" horiz-adv-x="429" d="M143 -10T105 21T48 131T30 354Q30 486 50 564T113 676T222 710Q288 710 326 678T381 569T399 357Q399 220 380 140T319 25T211 -10Q143 -10 105 21ZM251 73T272 101T302 190T312 355Q312 459 304 517T276
601T220 627Q184 627 163 599T131 507T121 334Q121 238 129 182T158 99T214 73Q251 73 272 101Z" />
<glyph unicode="P" glyph-name="P" horiz-adv-x="361" d="M254 700T298 653T343 503Q343 387 293 336T160 284H124V16Q124 7 121 4T97 1T44 0V684Q44 693 47 696T60 700H159Q254 700 298 653ZM212 359T233 394T254 512Q254 569 236 599T174 629H124V359H168Q212
359 233 394Z" />
<glyph unicode="Q" glyph-name="Q" horiz-adv-x="429" d="M404 -61T407 -74T410 -97Q410 -118 382 -127T320 -137Q269 -137 239 -107T190 -9Q131 -5 97 29T46 141T30 354Q30 486 50 564T113 676T222 710Q288 710 326 678T381 569T399 357Q399 194 371 111T282
2Q288 -37 300 -53T335 -70Q372 -70 398 -53Q404 -61 407 -74ZM121 238T129 182T158 99T214 73Q251 73 272 101T302 190T312 355Q312 459 304 517T276 601T220 627Q184 627 163 599T131 507T121 334Q121 238 129 182Z" />
<glyph unicode="R" glyph-name="R" horiz-adv-x="372" d="M288 264T315 192T350 18Q350 6 343 2T309 -2Q298 -2 262 0Q255 110 231 179T180 285Q173 284 160 284H124V16Q124 7 121 4T97 1T44 0V684Q44 688 47 694T60 700H159Q254 700 298 653T343 503Q343 356
256 306Q288 264 315 192ZM168 359Q212 359 233 393T254 506Q254 567 236 598T174 629H124V359H168Z" />
<glyph unicode="S" glyph-name="S" horiz-adv-x="358" d="M94 -10T60 8T25 49Q25 62 30 78T46 107Q85 72 149 72Q248 72 248 174Q248 210 235 238T189 306L89 423Q55 464 41 497T26 567Q26 632 71 671T198 710Q265 710 297 697T329 660Q329 635 309 614Q298 623
271 630T211 638Q166 638 140 620T113 569Q113 543 124 522T159 470L268 347Q306 302 320 264T335 178Q335 93 294 42T157 -10Q94 -10 60 8Z" />
<glyph unicode="T" glyph-name="T" horiz-adv-x="373" d="M365 700V641Q365 631 361 628T348 624H225V16Q225 7 221 4T197 1T144 0V624H8V684Q8 700 25 700H365Z" />
<glyph unicode="U" glyph-name="U" horiz-adv-x="437" d="M148 -10T109 18T57 91T44 205V683Q44 692 47 695T71 699T127 700V202Q127 133 146 99T224 65Q249 65 274 70T312 82V683Q312 692 316 695T340 699T394 700V26Q373 12 326 1T224 -10Q148 -10 109 18Z" />
<glyph unicode="V" glyph-name="V" horiz-adv-x="420" d="M176 -7T165 8T146 51Q122 153 73 377T7 676Q5 686 5 689Q5 695 9 697T24 700H90L174 312Q187 246 207 117L214 69Q232 215 250 312L325 676Q328 689 332 694T346 700H416L262 -3Q233 -7 194 -7Q176 -7 165 8Z" />
<glyph unicode="W" glyph-name="W" horiz-adv-x="654" d="M650 700L518 -3Q509 -4 492 -6T451 -8Q419 -8 408 49L356 276Q345 334 325 503Q306 341 296 277L241 -3Q208 -7 167 -7Q140 -7 126 54Q105 158 63 380T7 676Q6 680 6 687Q6 694 10 697T24 700H90L163
311Q178 220 193 88H198Q203 187 224 311L286 642Q289 656 292 661T307 666H364L435 311Q450 232 462 118L465 88H471Q482 220 496 311L561 676Q563 689 566 694T581 700H650Z" />
<glyph unicode="X" glyph-name="X" horiz-adv-x="424" d="M414 9T414 7Q414 0 403 0H315L261 135Q233 206 207 283Q178 198 151 135L97 10Q93 4 90 2T79 0H9L162 361L36 686Q33 694 37 696T66 699T131 700L172 586Q205 491 222 436Q248 520 271 586L310 687Q312
694 316 696T341 699T397 700L268 368L412 13Q414 9 414 7Z" />
<glyph unicode="Y" glyph-name="Y" horiz-adv-x="364" d="M225 16Q225 7 222 4T198 1T144 0V285L6 687Q4 694 8 696T35 699T97 700L137 563Q152 516 168 446T187 353Q189 375 206 445T238 563L273 685Q275 693 279 696T304 699T360 700L225 290V16Z" />
<glyph unicode="Z" glyph-name="Z" horiz-adv-x="385" d="M19 11T19 31Q19 50 27 67L267 628H80Q49 628 37 625V683Q37 691 41 695T54 700H352Q360 689 360 674Q360 656 352 637L108 72H302Q343 72 361 80V16Q361 0 345 0H32Q19 11 19 31Z" />
<glyph unicode="[" glyph-name="bracketleft" horiz-adv-x="386" d="M122 796Q122 808 125 812T140 819T184 821H377Q377 785 376 771T369 752T350 747H203V-123H376Q376 -161 374 -176T367 -195T349 -199H122V796Z" />
<glyph unicode="\" glyph-name="backslash" horiz-adv-x="329" d="M12 743L10 752Q10 761 25 763T91 765L317 -10L319 -18Q319 -26 304 -28T237 -30L12 743Z" />
<glyph unicode="]" glyph-name="bracketright" horiz-adv-x="386" d="M9 -164T10 -150T17 -131T36 -126H183V746H10Q10 784 12 799T19 818T37 822H264V-175Q264 -187 261 -191T246 -198T202 -200H9Q9 -164 10 -150Z" />
<glyph unicode="^" glyph-name="asciicircum" horiz-adv-x="430" d="M69 208T59 220T48 249L220 398L366 270Q380 259 380 244Q380 230 369 219T341 206L212 294L110 218Q94 208 85 208Q69 208 59 220Z" />
<glyph unicode="_" glyph-name="underscore" horiz-adv-x="377" d="M14 -66T16 -52T30 -38H364Q364 -81 362 -95T347 -109H14Q14 -66 16 -52Z" />
<glyph unicode="`" glyph-name="grave" horiz-adv-x="269" d="M162 568T111 604T49 655Q53 677 63 696T86 716Q93 716 141 675T220 598Q219 595 215 584T204 563T189 553Q162 568 111 604Z" />
<glyph unicode="a" glyph-name="a" horiz-adv-x="354" d="M102 -10T66 20T29 142Q29 237 65 271T163 306Q210 306 236 293V372Q236 406 221 419T174 432Q138 432 101 426T41 409Q30 430 30 456Q30 476 41 483Q56 493 99 501T194 510Q259 510 288 482T317 388V335Q317
115 311 24Q287 9 250 0T166 -10Q102 -10 66 20ZM196 58T211 63T233 74Q236 108 236 236Q217 246 189 246Q153 246 133 225T113 144Q113 93 129 76T180 58Q196 58 211 63Z" />
<glyph unicode="b" glyph-name="b" horiz-adv-x="385" d="M84 -10T48 20V698Q48 717 54 724T75 733T128 735V475Q173 510 235 510Q297 510 327 465T358 313Q358 120 303 55T164 -10Q84 -10 48 20ZM212 61T240 110T268 296Q268 374 251 405T198 437Q156 437 128
409V75Q144 61 175 61Q212 61 240 110Z" />
<glyph unicode="c" glyph-name="c" horiz-adv-x="313" d="M128 -10T96 9T48 83T31 239Q31 400 81 455T210 510Q246 510 270 497T294 465Q294 442 285 420Q251 439 214 439Q170 439 142 399T114 238Q114 169 123 131T152 77T204 62Q227 62 248 68T284 85Q292 56
292 41Q292 20 260 5T180 -10Q128 -10 96 9Z" />
<glyph unicode="d" glyph-name="d" horiz-adv-x="381" d="M142 -10T108 7T52 77T31 232Q31 373 73 441T184 510Q230 510 256 490V698Q256 717 262 724T284 733T337 735V20Q273 -10 193 -10Q142 -10 108 7ZM234 62T256 77V427Q239 440 210 440Q120 440 120 241Q120
168 129 129T154 76T196 62Q234 62 256 77Z" />
<glyph unicode="e" glyph-name="e" horiz-adv-x="361" d="M267 68T321 100Q328 78 328 45Q328 22 288 6T190 -10Q139 -10 105 9T50 79T30 224Q30 341 54 404T117 488T207 510Q334 510 334 350Q334 270 323 220Q279 211 221 208T113 204Q115 150 125 121T155 80T207
68Q267 68 321 100ZM162 439T140 402T114 268Q213 268 251 280Q256 303 256 340Q255 396 243 417T198 439Q162 439 140 402Z" />
<glyph unicode="f" glyph-name="f" horiz-adv-x="254" d="M82 432H13Q13 459 14 475T18 496T33 500H82V561Q82 665 129 702T249 739Q294 739 318 728T342 698Q342 675 333 654Q304 666 262 666Q215 666 189 646T162 567V500H252Q252 473 251 457T247 436T235 432H162V16Q162
11 159 6T145 0H82V432Z" />
<glyph unicode="g" glyph-name="g" horiz-adv-x="394" d="M308 72T341 47T375 -34Q375 -104 326 -150T183 -197Q91 -197 57 -167T23 -88Q23 -54 44 -23T100 33Q37 50 38 87Q38 127 101 177Q39 217 39 327Q39 422 83 466T206 510Q229 510 256 502H375Q383 488 383
464Q383 433 355 433Q342 433 319 438Q357 400 357 329Q357 246 318 200T195 154Q169 154 150 158Q123 131 123 114Q123 102 148 97T242 82Q308 72 341 47ZM167 451T146 422T124 329Q124 271 139 244T200 216Q239 216 257 249T276 348Q276 402 258 426T203 451Q167
451 146 422ZM240 -123T266 -99T293 -45Q293 -22 283 -10T249 9T180 19L160 21Q137 3 122 -21T106 -69Q106 -96 124 -109T190 -123Q240 -123 266 -99Z" />
<glyph unicode="h" glyph-name="h" horiz-adv-x="380" d="M45 698Q45 717 51 724T72 733T125 735V471Q147 490 177 500T238 510Q299 510 320 479T342 378V16Q342 7 338 4T313 1T260 0V356Q260 394 248 414T201 435Q182 435 162 429T125 408V16Q125 7 122 4T99
1T45 0V698Z" />
<glyph unicode="i" glyph-name="i" horiz-adv-x="175" d="M47 463Q47 482 53 489T75 498T128 500V16Q128 7 125 4T101 1T47 0V463ZM300 570T300 628Q300 692 346 692Q368 692 377 679T386 634Q386 604 374 587T340 570Q300 570 300 628Z" />
<glyph unicode="j" glyph-name="j" horiz-adv-x="184" d="M-50 -196T-76 -182T-103 -143Q-103 -117 -91 -102Q-53 -122 -6 -122Q31 -122 42 -101T54 -24V463Q54 482 60 489T81 498T134 500V-36Q134 -111 106 -153T4 -196Q-50 -196 -76 -182ZM306 570T306 628Q306
692 352 692Q374 692 383 679T392 634Q392 604 380 587T346 570Q306 570 306 628Z" />
<glyph unicode="k" glyph-name="k" horiz-adv-x="376" d="M46 698Q46 717 52 724T74 733T127 735V464Q153 485 187 497T253 510Q338 510 338 424Q338 369 312 331T254 269Q293 252 320 209T354 100Q355 90 355 67Q355 43 352 16Q351 7 347 4T321 1T261 0Q265 29
265 62Q265 93 260 123Q251 175 231 201T183 227Q176 227 172 226Q161 224 146 217T127 207V16Q127 7 124 4T101 1T46 0V698ZM249 314T249 397Q249 437 212 437Q166 437 127 389V265Q249 314 249 397Z" />
<glyph unicode="l" glyph-name="l" horiz-adv-x="173" d="M46 698Q46 717 52 724T74 733T127 735V16Q127 7 123 4T100 1T46 0V698Z" />
<glyph unicode="m" glyph-name="m" horiz-adv-x="564" d="M458 510T482 494T515 449T523 369V16Q523 7 519 4T495 1T442 0V370Q442 409 433 424T393 439Q356 439 325 420V16Q325 7 322 4T299 1T246 0H245V372Q245 400 242 413T229 433T195 440Q159 440 127 422V16Q127
7 123 4T99 1T46 0V477Q119 510 197 510Q259 510 288 479Q313 493 346 501T410 510Q458 510 482 494Z" />
<glyph unicode="n" glyph-name="n" horiz-adv-x="383" d="M45 476Q76 490 121 500T204 510Q282 510 313 480T344 376V16Q344 7 340 4T316 1T261 0V352Q261 402 249 421T201 440Q183 440 162 436T126 422V16Q126 7 122 4T98 1T45 0V476Z" />
<glyph unicode="o" glyph-name="o" horiz-adv-x="376" d="M128 -10T95 9T45 84T27 250Q27 510 194 510Q249 510 282 488T332 409T349 252Q349 116 308 53T184 -10Q128 -10 95 9ZM222 58T241 100T261 252Q261 330 254 371T231 427T191 442Q154 442 135 400T115
248Q115 168 123 127T146 72T186 58Q222 58 241 100Z" />
<glyph unicode="p" glyph-name="p" horiz-adv-x="382" d="M63 -197T55 -190T46 -162V470Q109 510 192 510Q272 510 313 464T355 302Q355 121 313 56T206 -10Q180 -10 160 -2T127 18V-191Q108 -197 85 -197Q63 -197 55 -190ZM266 62T266 293Q266 352 258 384T233
428T188 440Q154 440 127 421V95Q147 62 181 62Q266 62 266 293Z" />
<glyph unicode="q" glyph-name="q" horiz-adv-x="387" d="M276 -198T261 -195V34Q231 -10 165 -10Q107 -10 69 38T30 218Q30 373 86 441T235 510Q269 510 294 503T342 479V-163Q342 -186 334 -191T294 -198Q276 -198 261 -195ZM215 60T233 73T261 112V426Q243
440 215 440Q169 440 145 389T121 220Q121 127 141 94T195 61Q215 60 233 73Z" />
<glyph unicode="r" glyph-name="r" horiz-adv-x="263" d="M45 465Q109 510 181 510Q218 510 234 500T251 468Q251 443 242 421Q221 433 194 433Q155 433 128 410L127 16Q127 7 123 4T99 1T45 0V465Z" />
<glyph unicode="s" glyph-name="s" horiz-adv-x="346" d="M97 -10T64 3T30 40Q30 64 45 87Q86 63 144 63Q183 63 204 78T226 124Q226 146 217 165T186 203L89 286Q31 333 31 392Q31 447 72 478T195 510Q263 510 291 492T320 454Q320 445 315 434T303 413Q259 440
204 440Q168 440 147 427T125 391Q125 376 133 363T165 329L258 254Q291 222 304 194T318 129Q318 63 274 27T152 -10Q97 -10 64 3Z" />
<glyph unicode="t" glyph-name="t" horiz-adv-x="292" d="M141 -10T121 7T94 56T87 139V431H19Q19 458 20 474T24 495T36 500H87V652Q87 666 93 671T114 678T167 680V500H271Q271 473 270 456T266 435T254 431H167V139Q167 98 173 79T204 59Q220 59 232 62T262
74Q268 54 268 34Q268 10 243 0T182 -10Q141 -10 121 7Z" />
<glyph unicode="u" glyph-name="u" horiz-adv-x="389" d="M135 -10T103 8T58 61T45 156V484Q45 493 48 496T72 499T128 500V149Q128 98 141 79T196 60Q236 60 263 79V484Q263 493 267 496T290 499T344 500V26Q314 10 274 0T194 -10Q135 -10 103 8Z" />
<glyph unicode="v" glyph-name="v" horiz-adv-x="344" d="M143 -6T135 6T121 43L19 475Q17 485 17 487Q17 494 23 496T51 499T104 500L136 339Q150 274 161 193T176 86H178Q181 111 192 192T216 340L243 482Q245 492 249 495T273 499T328 500L213 -3Q198 -6 156
-6Q143 -6 135 6Z" />
<glyph unicode="w" glyph-name="w" horiz-adv-x="541" d="M448 492T452 495T476 499T526 500Q510 421 466 209T418 -3Q415 -4 401 -5T366 -6Q354 -6 342 7T324 46L311 114Q288 220 274 363Q256 205 237 113L214 -3Q207 -4 188 -5T147 -6Q123 -6 113 43Q95 120
61 276T16 483Q14 492 19 495T46 499T103 500L134 337Q146 267 156 191T169 93H175Q194 229 203 278L235 469Q237 480 241 483T261 486H314L353 276Q364 228 373 170T384 93H389Q393 140 402 210T421 337L446 482Q448 492 452 495Z" />
<glyph unicode="x" glyph-name="x" horiz-adv-x="411" d="M395 9T395 8Q395 3 384 2T337 0H302L265 66Q243 107 199 201Q164 121 136 65L107 16Q103 8 96 5T68 1T15 0L157 260L35 487Q32 494 35 496T60 499T120 500L157 431Q185 379 211 317Q244 390 266 432L297
486Q300 494 305 496T330 499T386 500L258 267L391 19Q395 9 395 8Z" />
<glyph unicode="y" glyph-name="y" horiz-adv-x="357" d="M-4 -193T-4 -154Q-4 -142 -1 -130T8 -109Q18 -116 35 -120T71 -124Q97 -124 115 -100T144 -16L24 478Q22 486 22 489Q22 497 35 498T102 500L157 260Q167 211 174 156T184 83Q186 99 192 154T208 261L253
477Q255 490 259 494T279 499T340 500L217 -27Q202 -91 184 -127T140 -178T77 -193Q-4 -193 -4 -154Z" />
<glyph unicode="z" glyph-name="z" horiz-adv-x="335" d="M33 1T30 5T24 19T21 40Q21 58 28 70L223 432H120Q63 432 28 427Q25 444 25 465Q25 483 31 491T51 500H306Q307 499 310 493T314 475Q314 456 305 436L115 75H204Q270 75 310 85Q312 77 312 50Q312 23
306 12T280 0H34Q33 1 30 5Z" />
<glyph unicode="{" glyph-name="braceleft" horiz-adv-x="277" d="M154 -150T122 -117T89 -15Q89 26 96 80Q97 89 100 120T103 182Q103 220 90 237T48 260Q41 275 41 293Q41 321 58 333Q74 343 83 352T97 378T103 427Q103 458 100 492T96 536Q89 590 89 626Q89
686 130 714T244 744Q260 722 260 694Q260 683 256 676T245 666Q208 663 190 644T171 585Q171 556 176 511Q182 445 182 403Q182 357 169 335T128 300Q155 289 168 268T182 205Q182 164 176 100Q171 53 171 22Q171 -15 180 -35T206 -63T253 -76Q255 -102 255 -106Q255
-126 248 -138T227 -150Q154 -150 122 -117Z" />
<glyph unicode="|" glyph-name="bar" horiz-adv-x="324" d="M122 793Q122 805 126 809T145 814T203 815V-180Q203 -191 199 -194T175 -199T122 -200V793Z" />
<glyph unicode="}" glyph-name="braceright" horiz-adv-x="277" d="M18 -128T18 -100Q18 -75 33 -72Q106 -66 106 8Q106 28 102 84Q96 148 96 191Q96 237 109 259T149 294Q122 305 109 326T96 389Q96 430 102 494Q106 550 106 573Q106 610 97 629T71 657T25 670Q21
686 21 701Q21 720 29 732T50 744Q123 744 155 711T188 609Q188 568 181 514Q180 505 177 474T174 412Q174 374 187 357T229 334Q236 317 236 301Q236 272 218 261Q201 250 193 242T180 216T174 167Q174 128 182 58Q188 -6 188 -32Q188 -92 146 -121T33 -150Q18
-128 18 -100Z" />
<glyph unicode="~" glyph-name="asciitilde" horiz-adv-x="400" d="M237 212T221 218T185 237Q169 247 158 251T132 256Q115 256 102 250T72 232Q58 221 46 218Q32 217 22 230T11 266Q26 289 61 309T140 329Q164 329 178 324T212 306Q228 296 240 291T270 286Q309
286 341 320Q347 325 357 325Q370 325 380 311T391 277Q373 252 340 232T263 212Q237 212 221 218Z" />
<glyph unicode="&#xa0;" glyph-name="uni00A0" horiz-adv-x="158" />
<glyph unicode="&#xa1;" glyph-name="exclamdown" horiz-adv-x="195" d="M46 394T46 451Q46 476 61 492T102 508Q132 508 144 494T157 451Q157 427 142 411T102 394Q46 394 46 451ZM61 256Q62 274 69 281T91 291T141 293L155 -174Q155 -185 147 -190T117 -196T45
-197L61 256Z" />
<glyph unicode="&#xa2;" glyph-name="cent" horiz-adv-x="418" d="M277 64T299 71T335 88Q343 68 343 37Q343 23 319 9T263 -9V-102Q263 -121 247 -127T190 -133V-7Q154 -1 131 20T96 91T83 228Q83 471 213 504V592Q213 611 230 618T286 626V508Q310 503 327 494T345
475Q345 437 337 417Q305 435 269 435Q239 435 217 421T179 362T164 231Q164 156 174 121T202 75T257 64Q277 64 299 71Z" />
<glyph unicode="&#xa3;" glyph-name="sterling" horiz-adv-x="366" d="M322 74Q329 54 329 37Q329 0 277 0H89Q80 121 78 277H15Q15 320 17 333T31 347H78Q82 480 122 537T238 595Q280 595 309 582T338 542Q338 530 335 518T327 493Q294 514 256 514Q210 514 185
479T158 347H288Q288 305 286 291T272 277H158Q160 146 165 80L322 74Z" />
<glyph unicode="&#xa4;" glyph-name="currency" horiz-adv-x="571" d="M560 49Q535 24 525 15T507 6Q504 6 498 10L417 91Q371 52 286 52Q201 52 154 90L62 -2Q39 21 30 32T20 51Q20 56 24 60L110 146Q87 198 87 276Q87 350 107 401L12 496Q37 521 47 530T65 539Q69
539 73 535L147 461Q198 506 291 506Q380 506 427 463L510 546Q534 522 543 512T552 493Q552 489 548 485L466 403Q484 357 484 286Q484 202 460 148L560 49ZM348 121T377 162T407 288Q407 365 380 402T295 439Q230 439 199 398T167 271Q167 195 196 158T288 121Q348
121 377 162Z" />
<glyph unicode="&#xa5;" glyph-name="yen" horiz-adv-x="418" d="M249 243H379Q379 205 373 191T347 176H249V16Q249 7 246 4T223 1T169 0V176H38Q38 215 44 229T70 243H169V284L149 341H38Q38 380 44 394T70 408H126L30 687Q28 694 32 696T59 699T122 700L161
563Q179 505 193 449T209 372Q211 392 226 451T259 563L297 685Q300 693 304 696T329 699T384 700L288 408H378Q378 370 372 356T347 341H266L249 290V243Z" />
<glyph unicode="&#xa6;" glyph-name="brokenbar" horiz-adv-x="227" d="M90 326T73 330V711Q73 729 82 736T115 743Q135 743 153 737V354Q153 337 146 332T112 326Q90 326 73 330ZM89 -198T73 -193V192Q73 210 82 217T115 225Q135 225 153 219V-169Q153 -187 146
-192T112 -198Q89 -198 73 -193Z" />
<glyph unicode="&#xa7;" glyph-name="section" horiz-adv-x="348" d="M264 201Q284 174 292 155T301 112Q301 58 259 27T150 -4Q106 -4 78 9T43 39Q40 44 40 55Q40 83 56 105Q90 81 137 81Q171 81 190 94T209 128Q209 142 202 154T179 185Q179 185 141 223Q94
268 72 296Q53 320 45 340T36 388Q36 415 49 442T91 489L83 499Q63 524 55 543T46 587Q46 641 88 672T198 703Q242 703 269 690T304 661Q307 652 307 644Q307 617 291 595Q259 618 209 618Q175 618 157 605T138 571Q138 557 144 546T167 515Q181 500 202 480Q221
462 242 441T275 404Q295 380 303 360T311 312Q311 286 297 259T255 212L264 201ZM151 300T171 284T196 264Q214 271 225 287T236 318Q236 335 229 350T207 384Q196 399 176 415T151 435Q133 429 122 413T111 382Q111 363 118 348T140 315Q151 300 171 284Z" />
<glyph unicode="&#xa8;" glyph-name="dieresis" horiz-adv-x="269" d="M53 573T44 586T34 632Q34 659 45 674T78 689Q100 689 108 677T117 634Q117 604 106 588T73 572Q53 573 44 586ZM173 573T163 585T153 628Q153 689 197 689Q219 689 227 677T236 634Q234 572
192 572Q173 573 163 585Z" />
<glyph unicode="&#xa9;" glyph-name="copyright" horiz-adv-x="471" d="M133 320T85 371T36 541Q36 652 89 706T242 760Q343 760 389 711T436 543Q436 435 384 378T234 320Q133 320 85 371ZM296 378T335 418T375 544Q375 628 342 666T241 705Q96 705 96 541Q96
452 129 415T232 378Q296 378 335 418ZM211 416T193 424T166 456T157 531Q157 613 183 640T249 668Q264 668 279 663T294 652Q294 644 288 620Q268 628 254 628Q231 628 218 609T204 529Q204 497 208 482T222 462T247 457Q266 457 286 467Q289 461 291 452T293
437Q293 430 277 423T243 416Q211 416 193 424Z" />
<glyph unicode="&#xaa;" glyph-name="ordfeminine" horiz-adv-x="323" d="M100 288T71 312T41 411Q41 478 69 506T150 534Q182 534 214 524V582Q214 615 198 627T152 639Q105 639 57 617Q47 630 47 652Q47 668 53 675Q85 710 176 710Q225 710 253 685T282 608V317Q259
306 224 297T154 288Q100 288 71 312ZM179 346T193 349T214 358V468Q206 472 194 474T172 476Q138 476 122 464T105 409Q105 373 120 360T165 346Q179 346 193 349Z" />
<glyph unicode="&#xab;" glyph-name="guillemotleft" horiz-adv-x="416" d="M156 16T120 70T51 181T18 253Q18 268 50 322T118 430T164 500Q178 500 188 491T205 472T212 459Q212 442 186 397T132 309T94 253Q103 240 132 198T187 109T214 47Q213 43 207 32T191
11T167 0Q156 16 120 70ZM326 38T291 86T223 185T190 251Q190 265 222 315T288 414T334 477Q347 477 357 469T374 451T381 439Q381 423 356 381T303 301T267 251Q276 240 303 203T357 125T383 69Q382 66 376 55T360 34T337 24Q326 38 291 86Z" />
<glyph unicode="&#xac;" glyph-name="logicalnot" horiz-adv-x="400" d="M358 111Q342 105 321 105Q304 105 293 111T282 131V232H40Q34 252 34 270Q34 287 40 297T60 308H358V111Z" />
<glyph unicode="&#xad;" glyph-name="uni00AD" horiz-adv-x="278" d="M37 290T39 303T54 317H241Q241 275 239 261T225 247H37Q37 290 39 303Z" />
<glyph unicode="&#xae;" glyph-name="registered" horiz-adv-x="471" d="M343 760T389 711T436 543Q436 435 384 378T234 320Q133 320 85 371T36 541Q36 652 89 706T242 760Q343 760 389 711ZM296 378T335 418T375 544Q375 628 342 666T241 705Q96 705 96 541Q96
452 129 415T232 378Q296 378 335 418ZM288 517T300 492T315 426Q315 420 312 418T299 416Q281 416 274 417Q268 491 239 518Q235 517 227 517H214V425Q214 419 208 418T176 417V665Q176 666 177 668T183 670H227Q308 670 308 598Q308 550 274 529Q288 517 300
492ZM219 551T230 551Q249 551 258 562T268 600Q268 618 260 627T232 637H214V552Q219 551 230 551Z" />
<glyph unicode="&#xaf;" glyph-name="overscore" horiz-adv-x="269" d="M1 601T1 624Q1 642 10 652T34 663H261Q268 646 268 629Q268 611 260 599T238 587H6Q1 601 1 624Z" />
<glyph unicode="&#xb0;" glyph-name="degree" horiz-adv-x="358" d="M129 553T107 573T84 649Q84 746 184 746Q233 746 254 725T276 650Q276 602 251 578T177 553Q129 553 107 573ZM223 604T223 650Q223 674 214 684T184 694Q161 694 150 684T138 648Q138 604
179 604Q223 604 223 650Z" />
<glyph unicode="&#xb1;" glyph-name="plusminus" horiz-adv-x="419" d="M385 359Q385 317 383 303T369 289H246V165Q246 154 232 152T175 149V289H35Q35 332 37 345T52 359H175V483Q175 494 189 496T246 499V359H385ZM34 58T36 71T51 85H384Q384 43 382 29T368
15H34Q34 58 36 71Z" />
<glyph unicode="&#xb2;" glyph-name="uni00B2" d="M41 301T41 315Q41 344 53 357Q77 385 138 444Q188 491 210 518T232 576Q232 600 219 614T168 628Q139 628 116 618T66 590Q57 606 54 616T51 639Q51 657 74 673T134 700T205 710Q274 710 302 683T330 604Q330
556 300 515T212 416Q170 373 162 365H339Q344 342 344 330Q344 289 318 289H47Q41 301 41 315Z" />
<glyph unicode="&#xb3;" glyph-name="uni00B3" d="M304 503T322 478T340 423Q340 352 292 316T165 279Q126 279 98 286T57 305Q45 314 45 335Q45 347 50 359T64 379Q103 353 161 353Q205 353 231 369T257 416Q257 438 242 452T199 470Q181 473 128 473Q126 476
123 489T119 510Q119 535 144 535Q171 535 197 532Q218 548 227 562T236 594Q236 612 221 625T171 638Q113 638 67 605Q51 622 51 645Q51 663 61 671Q79 688 116 699T204 710Q266 710 295 686T325 620Q325 592 312 565T273 516Q304 503 322 478Z" />
<glyph unicode="&#xb4;" glyph-name="acute" horiz-adv-x="271" d="M73 560T66 570T55 591T50 605Q82 641 129 681T184 722Q197 722 207 703T221 661Q209 648 158 611T81 560Q73 560 66 570Z" />
<glyph unicode="&#xb5;" glyph-name="uni00B5" horiz-adv-x="395" d="M70 -195T45 -190V470Q45 488 54 496T86 505Q110 505 125 500V131Q125 98 143 82T195 66Q237 66 269 81V470Q269 488 277 496T308 505Q334 505 349 500V24Q317 9 277 0T194 -10Q146 -10 125
15V-163Q125 -195 80 -195Q70 -195 45 -190Z" />
<glyph unicode="&#xb6;" glyph-name="paragraph" horiz-adv-x="541" d="M289 -3T271 3V205Q257 198 235 194T191 190Q121 190 78 242T34 420Q34 569 86 639T231 710Q298 710 352 682V26Q352 -3 312 -3Q289 -3 271 3ZM430 -3T414 2V658Q414 676 423 683T456 690Q477
690 495 684V26Q495 8 487 3T453 -3Q430 -3 414 2ZM226 255T243 258T271 269V630Q253 641 220 641Q169 641 143 588T116 428Q116 331 143 294T212 255Q226 255 243 258Z" />
<glyph unicode="&#xb7;" glyph-name="middot" horiz-adv-x="220" d="M79 212T66 226T53 269Q53 293 68 309T109 326Q165 326 165 269Q165 244 150 228T109 212Q79 212 66 226Z" />
<glyph unicode="&#xb8;" glyph-name="cedilla" horiz-adv-x="269" d="M177 -58T191 -74T206 -122Q206 -160 184 -183T126 -206Q107 -206 89 -200T70 -193Q71 -188 75 -172T83 -152Q86 -149 101 -156T128 -163Q159 -163 159 -129Q159 -95 129 -95Q113 -95 102 -97T88
-101L107 2H152L140 -59Q141 -58 157 -58Q177 -58 191 -74Z" />
<glyph unicode="&#xb9;" glyph-name="uni00B9" horiz-adv-x="382" d="M45 308T45 323Q45 345 50 355T72 365H166V622L58 600Q48 616 48 638Q48 666 74 676Q109 688 157 699T223 710Q241 710 247 707V365H334Q338 339 338 329Q338 307 333 298T313 289H49Q45 308 45 323Z" />
<glyph unicode="&#xba;" glyph-name="ordmasculine" horiz-adv-x="338" d="M121 289T93 307T50 372T35 499Q35 607 71 658T174 710Q220 710 247 692T289 628T303 501Q303 394 268 342T165 289Q121 289 93 307ZM200 356T217 389T235 499Q235 580 221 609T175 639Q139
639 121 606T103 494Q103 414 118 385T166 356Q200 356 217 389Z" />
<glyph unicode="&#xbb;" glyph-name="guillemotright" horiz-adv-x="414" d="M244 1T233 6T211 21T200 46Q200 62 227 108T283 197T321 253Q312 266 284 308T229 396T203 459Q203 471 213 480T235 494T251 500Q262 484 297 431T364 323T396 253Q396 237 363 181T295
71T248 0Q244 1 233 6ZM73 23T63 28T43 43T33 68Q33 84 59 124T112 202T149 250Q152 250 126 284Q84 343 60 382T35 439Q35 451 45 460T65 474T79 480Q90 465 125 416T192 316T224 250Q224 234 191 184T123 85T76 22Q73 23 63 28Z" />
<glyph unicode="&#xbc;" glyph-name="onequarter" horiz-adv-x="959" d="M41 307T41 323Q41 345 46 355T68 365H162V622L54 600Q44 616 44 638Q44 665 71 676Q105 688 153 699T219 710Q237 710 244 707V365H330Q334 348 334 329Q334 307 329 298T310 289H46Q41
307 41 323ZM324 -10T309 -2T281 19L617 691Q625 710 645 710Q658 710 673 703T700 682L361 5Q355 -10 337 -10Q324 -10 309 -2ZM808 -6T792 -2V70H621Q607 85 607 110Q607 125 614 143Q632 202 677 275T764 390Q780 409 796 415T834 421Q853 421 868 416V147H927Q934
130 934 109Q934 91 927 81T909 70H868V19Q868 -6 825 -6Q808 -6 792 -2ZM795 141L799 329Q766 303 731 247T682 141H795Z" />
<glyph unicode="&#xbd;" glyph-name="onehalf" horiz-adv-x="947" d="M41 307T41 323Q41 345 46 355T68 365H162V622L54 600Q44 616 44 638Q44 665 71 676Q105 688 153 699T219 710Q237 710 244 707V365H330Q334 348 334 329Q334 307 329 298T310 289H46Q41 307
41 323ZM324 -10T309 -2T281 19L617 691Q625 710 645 710Q658 710 673 703T700 682L361 5Q355 -10 337 -10Q324 -10 309 -2ZM607 12T607 26Q607 55 619 68Q643 96 704 155Q754 202 776 229T798 287Q798 311 785 325T734 339Q706 339 682 329T632 301Q623 317 621
327T618 350Q618 368 641 384T700 411T771 421Q840 421 868 394T896 315Q896 281 879 249T839 190T776 125Q735 84 728 76H905Q910 53 910 41Q910 0 884 0H613Q607 12 607 26Z" />
<glyph unicode="&#xbe;" glyph-name="threequarters" horiz-adv-x="961" d="M300 503T318 478T336 423Q336 352 288 316T161 279Q122 279 95 286T54 305Q41 314 41 335Q41 347 46 359T61 379Q98 353 158 353Q202 353 227 369T253 416Q253 438 238 452T196 470Q177
473 124 473Q122 476 119 489T115 510Q115 535 140 535Q169 535 194 532Q215 547 223 561T232 594Q232 612 217 625T168 638Q109 638 64 605Q48 622 48 646Q48 664 57 671Q75 688 112 699T201 710Q262 710 291 686T321 620Q321 592 308 565T269 516Q300 503 318
478ZM326 -10T311 -2T283 19L619 691Q627 710 647 710Q660 710 675 703T702 682L363 5Q357 -10 339 -10Q326 -10 311 -2ZM810 -6T794 -2V70H623Q609 85 609 110Q609 125 616 143Q634 202 679 275T766 390Q782 409 798 415T836 421Q855 421 870 416V147H929Q936
130 936 109Q936 91 929 81T911 70H870V19Q870 -6 827 -6Q810 -6 794 -2ZM797 141L801 329Q768 303 733 247T684 141H797Z" />
<glyph unicode="&#xbf;" glyph-name="questiondown" horiz-adv-x="306" d="M138 392T125 407T111 450Q111 474 126 490T167 506Q197 506 210 492T223 450Q223 426 208 409T167 392Q138 392 125 407ZM89 -195T52 -160T14 -56Q14 3 33 43T89 131Q117 170 125 184Q137
205 137 232Q137 242 132 272Q130 281 130 288T131 298Q141 308 176 308Q188 308 204 306Q205 304 208 295T215 270T219 236Q219 198 201 163Q186 135 156 93Q127 49 114 23T101 -37Q101 -114 182 -114Q228 -114 266 -89Q278 -119 278 -153Q278 -170 239 -182T153
-195Q89 -195 52 -160Z" />
<glyph unicode="&#xc0;" glyph-name="Agrave" horiz-adv-x="437" d="M433 6T426 2T396 -2Q369 -2 348 0L306 178H132L93 14Q90 5 84 2T55 -2Q34 -2 5 1L184 689Q187 703 214 703Q237 703 252 700L431 15Q433 6 426 2ZM288 251L254 395Q225 517 219 588Q208 499
183 395L149 251H288ZM253 768T202 804T140 855Q144 877 154 896T177 916Q184 916 232 875T311 798Q310 795 306 784T295 763T280 753Q253 768 202 804Z" />
<glyph unicode="&#xc1;" glyph-name="Aacute" horiz-adv-x="437" d="M433 6T426 2T396 -2Q369 -2 348 0L306 178H132L93 14Q90 5 84 2T55 -2Q34 -2 5 1L184 689Q187 703 214 703Q237 703 252 700L431 15Q433 6 426 2ZM288 251L254 395Q225 517 219 588Q208 499
183 395L149 251H288ZM163 760T156 770T145 791T140 805Q172 841 219 881T274 922Q287 922 297 903T311 861Q299 848 248 811T171 760Q163 760 156 770Z" />
<glyph unicode="&#xc2;" glyph-name="Acircumflex" horiz-adv-x="437" d="M433 6T426 2T396 -2Q369 -2 348 0L306 178H132L93 14Q90 5 84 2T55 -2Q34 -2 5 1L184 689Q187 703 214 703Q237 703 252 700L431 15Q433 6 426 2ZM288 251L254 395Q225 517 219 588Q208
499 183 395L149 251H288ZM279 770T255 796T222 838Q218 832 203 814T172 779T147 762Q111 762 92 785L206 908Q214 911 223 911Q237 911 248 899Q255 892 278 867T323 817T345 784Q345 774 328 768T288 761Q279 770 255 796Z" />
<glyph unicode="&#xc3;" glyph-name="Atilde" horiz-adv-x="437" d="M433 6T426 2T396 -2Q369 -2 348 0L306 178H132L93 14Q90 5 84 2T55 -2Q34 -2 5 1L184 689Q187 703 214 703Q237 703 252 700L431 15Q433 6 426 2ZM288 251L254 395Q225 517 219 588Q208 499
183 395L149 251H288ZM238 763T227 770T205 790Q195 801 188 806T170 811Q156 811 147 804T127 785T111 772Q101 772 93 781T79 799T72 812Q96 851 125 869T185 887Q200 887 209 881T230 863Q241 851 250 845T272 839Q292 839 302 846T322 866T337 878Q345 878
351 868T361 847T366 833Q362 824 347 808T309 777T258 763Q238 763 227 770Z" />
<glyph unicode="&#xc4;" glyph-name="Adieresis" horiz-adv-x="437" d="M433 6T426 2T396 -2Q369 -2 348 0L306 178H132L93 14Q90 5 84 2T55 -2Q34 -2 5 1L184 689Q187 703 214 703Q237 703 252 700L431 15Q433 6 426 2ZM288 251L254 395Q225 517 219 588Q208
499 183 395L149 251H288ZM137 773T128 786T118 832Q118 859 129 874T162 889Q184 889 192 877T201 834Q201 804 190 788T157 772Q137 773 128 786ZM257 773T247 785T237 828Q237 889 281 889Q303 889 311 877T320 834Q318 772 276 772Q257 773 247 785Z" />
<glyph unicode="&#xc5;" glyph-name="Aring" horiz-adv-x="437" d="M433 6T426 2T396 -2Q369 -2 348 0L306 178H132L93 14Q90 5 84 2T55 -2Q34 -2 5 1L184 689Q187 703 214 703Q237 703 252 700L431 15Q433 6 426 2ZM288 251L254 395Q225 517 219 588Q208 499
183 395L149 251H288ZM169 743T146 764T123 839Q123 888 149 912T223 937Q271 937 293 916T315 840Q315 792 290 768T216 743Q169 743 146 764ZM259 797T259 840Q259 862 250 871T223 881Q180 881 180 838Q180 818 189 808T218 797Q259 797 259 840Z" />
<glyph unicode="&#xc6;" glyph-name="AE" horiz-adv-x="615" d="M420 73H592Q592 44 592 26T588 4T576 0H340V178H174L105 14Q102 5 95 2T68 -2Q45 -2 17 1L311 686Q317 700 337 700H596Q596 672 596 654T592 632T581 627H420V418H571Q571 391 571 373T567 350T556
344H420V73ZM340 251V615Q304 490 264 392L205 251H340Z" />
<glyph unicode="&#xc7;" glyph-name="Ccedilla" horiz-adv-x="341" d="M243 79T268 88T308 111Q320 85 320 62Q320 35 293 15T220 -9L210 -59Q211 -58 227 -58Q247 -58 261 -74T276 -122Q276 -160 254 -183T196 -206Q177 -206 159 -200T140 -193Q141 -188 145
-172T153 -152Q156 -149 171 -156T198 -163Q229 -163 229 -129Q229 -95 199 -95Q183 -95 172 -97T158 -101L175 -9Q128 -6 97 21T48 120T30 321Q30 480 59 566T130 681T227 710Q277 710 299 694T321 655Q321 628 308 606Q277 631 243 631Q206 631 178 608T133 517T115
325Q115 227 127 173T161 99T215 79Q243 79 268 88Z" />
<glyph unicode="&#xc8;" glyph-name="Egrave" horiz-adv-x="320" d="M125 73H297Q297 44 297 26T293 4T281 0H45V684Q45 688 48 694T61 700H301Q301 672 301 654T297 632T286 627H125V418H276Q276 391 276 373T272 350T261 344H125V73ZM204 768T153 804T91 855Q95
877 105 896T128 916Q135 916 183 875T262 798Q261 795 257 784T246 763T231 753Q204 768 153 804Z" />
<glyph unicode="&#xc9;" glyph-name="Eacute" horiz-adv-x="320" d="M125 73H297Q297 44 297 26T293 4T281 0H45V684Q45 688 48 694T61 700H301Q301 672 301 654T297 632T286 627H125V418H276Q276 391 276 373T272 350T261 344H125V73ZM114 760T107 770T96 791T91
805Q123 841 170 881T225 922Q238 922 248 903T262 861Q250 848 199 811T122 760Q114 760 107 770Z" />
<glyph unicode="&#xca;" glyph-name="Ecircumflex" horiz-adv-x="320" d="M125 73H297Q297 44 297 26T293 4T281 0H45V684Q45 688 48 694T61 700H301Q301 672 301 654T297 632T286 627H125V418H276Q276 391 276 373T272 350T261 344H125V73ZM230 770T206 796T173
838Q169 832 154 814T123 779T98 762Q62 762 43 785L157 908Q165 911 174 911Q188 911 199 899Q206 892 229 867T274 817T296 784Q296 774 279 768T239 761Q230 770 206 796Z" />
<glyph unicode="&#xcb;" glyph-name="Edieresis" horiz-adv-x="320" d="M125 73H297Q297 44 297 26T293 4T281 0H45V684Q45 688 48 694T61 700H301Q301 672 301 654T297 632T286 627H125V418H276Q276 391 276 373T272 350T261 344H125V73ZM88 773T79 786T69 832Q69
859 80 874T113 889Q135 889 143 877T152 834Q152 804 141 788T108 772Q88 773 79 786ZM208 773T198 785T188 828Q188 889 232 889Q254 889 262 877T271 834Q269 772 227 772Q208 773 198 785Z" />
<glyph unicode="&#xcc;" glyph-name="Igrave" horiz-adv-x="169" d="M44 663Q44 683 48 690T66 698T126 700V16Q126 7 122 4T98 1T44 0V663ZM119 768T68 804T6 855Q10 877 20 896T43 916Q50 916 98 875T177 798Q176 795 172 784T161 763T146 753Q119 768 68 804Z" />
<glyph unicode="&#xcd;" glyph-name="Iacute" horiz-adv-x="169" d="M44 663Q44 683 48 690T66 698T126 700V16Q126 7 122 4T98 1T44 0V663ZM29 760T22 770T11 791T6 805Q38 841 85 881T140 922Q153 922 163 903T177 861Q165 848 114 811T37 760Q29 760 22 770Z" />
<glyph unicode="&#xce;" glyph-name="Icircumflex" horiz-adv-x="169" d="M44 663Q44 683 48 690T66 698T126 700V16Q126 7 122 4T98 1T44 0V663ZM145 770T121 796T88 838Q84 832 69 814T38 779T13 762Q-23 762 -42 785L72 908Q80 911 89 911Q103 911 114 899Q121
892 144 867T189 817T211 784Q211 774 194 768T154 761Q145 770 121 796Z" />
<glyph unicode="&#xcf;" glyph-name="Idieresis" horiz-adv-x="169" d="M44 663Q44 683 48 690T66 698T126 700V16Q126 7 122 4T98 1T44 0V663ZM3 773T-6 786T-16 832Q-16 859 -5 874T28 889Q50 889 58 877T67 834Q67 804 56 788T23 772Q3 773 -6 786ZM123 773T113
785T103 828Q103 889 147 889Q169 889 177 877T186 834Q184 772 142 772Q123 773 113 785Z" />
<glyph unicode="&#xd0;" glyph-name="Eth" horiz-adv-x="388" d="M237 700T279 672T342 577T364 394Q364 247 342 160T276 37T169 0H44V331H5Q5 374 7 387T21 401H44V681Q44 691 50 695T71 700H169Q237 700 279 672ZM201 77T223 100T259 193T273 394Q273 485 262
535T229 606T171 626H125V401H205Q205 359 203 345T188 331H125V77H171Q201 77 223 100Z" />
<glyph unicode="&#xd1;" glyph-name="Ntilde" horiz-adv-x="444" d="M320 693T324 696T348 699T401 700V16Q401 0 384 0H324L209 275Q185 339 114 560Q118 517 121 416T124 259V16Q124 7 121 4T97 1T44 0V684Q44 700 60 700H121L234 430Q247 395 308 211Q312 199
330 146V149Q325 188 323 290T320 448V684Q320 693 324 696ZM241 763T230 770T208 790Q198 801 191 806T173 811Q159 811 150 804T130 785T114 772Q104 772 96 781T82 799T75 812Q99 851 128 869T188 887Q203 887 212 881T233 863Q244 851 253 845T275 839Q295
839 305 846T325 866T340 878Q348 878 354 868T364 847T369 833Q365 824 350 808T312 777T261 763Q241 763 230 770Z" />
<glyph unicode="&#xd2;" glyph-name="Ograve" horiz-adv-x="429" d="M143 -10T105 21T48 131T30 354Q30 486 50 564T113 676T222 710Q288 710 326 678T381 569T399 357Q399 220 380 140T319 25T211 -10Q143 -10 105 21ZM251 73T272 101T302 190T312 355Q312 459
304 517T276 601T220 627Q184 627 163 599T131 507T121 334Q121 238 129 182T158 99T214 73Q251 73 272 101ZM249 768T198 804T136 855Q140 877 150 896T173 916Q180 916 228 875T307 798Q306 795 302 784T291 763T276 753Q249 768 198 804Z" />
<glyph unicode="&#xd3;" glyph-name="Oacute" horiz-adv-x="429" d="M143 -10T105 21T48 131T30 354Q30 486 50 564T113 676T222 710Q288 710 326 678T381 569T399 357Q399 220 380 140T319 25T211 -10Q143 -10 105 21ZM251 73T272 101T302 190T312 355Q312 459
304 517T276 601T220 627Q184 627 163 599T131 507T121 334Q121 238 129 182T158 99T214 73Q251 73 272 101ZM159 760T152 770T141 791T136 805Q168 841 215 881T270 922Q283 922 293 903T307 861Q295 848 244 811T167 760Q159 760 152 770Z" />
<glyph unicode="&#xd4;" glyph-name="Ocircumflex" horiz-adv-x="429" d="M143 -10T105 21T48 131T30 354Q30 486 50 564T113 676T222 710Q288 710 326 678T381 569T399 357Q399 220 380 140T319 25T211 -10Q143 -10 105 21ZM251 73T272 101T302 190T312 355Q312
459 304 517T276 601T220 627Q184 627 163 599T131 507T121 334Q121 238 129 182T158 99T214 73Q251 73 272 101ZM275 770T251 796T218 838Q214 832 199 814T168 779T143 762Q107 762 88 785L202 908Q210 911 219 911Q233 911 244 899Q251 892 274 867T319 817T341
784Q341 774 324 768T284 761Q275 770 251 796Z" />
<glyph unicode="&#xd5;" glyph-name="Otilde" horiz-adv-x="429" d="M143 -10T105 21T48 131T30 354Q30 486 50 564T113 676T222 710Q288 710 326 678T381 569T399 357Q399 220 380 140T319 25T211 -10Q143 -10 105 21ZM251 73T272 101T302 190T312 355Q312 459
304 517T276 601T220 627Q184 627 163 599T131 507T121 334Q121 238 129 182T158 99T214 73Q251 73 272 101ZM234 763T223 770T201 790Q191 801 184 806T166 811Q152 811 143 804T123 785T107 772Q97 772 89 781T75 799T68 812Q92 851 121 869T181 887Q196 887
205 881T226 863Q237 851 246 845T268 839Q288 839 298 846T318 866T333 878Q341 878 347 868T357 847T362 833Q358 824 343 808T305 777T254 763Q234 763 223 770Z" />
<glyph unicode="&#xd6;" glyph-name="Odieresis" horiz-adv-x="429" d="M143 -10T105 21T48 131T30 354Q30 486 50 564T113 676T222 710Q288 710 326 678T381 569T399 357Q399 220 380 140T319 25T211 -10Q143 -10 105 21ZM251 73T272 101T302 190T312 355Q312
459 304 517T276 601T220 627Q184 627 163 599T131 507T121 334Q121 238 129 182T158 99T214 73Q251 73 272 101ZM133 773T124 786T114 832Q114 859 125 874T158 889Q180 889 188 877T197 834Q197 804 186 788T153 772Q133 773 124 786ZM253 773T243 785T233 828Q233
889 277 889Q299 889 307 877T316 834Q314 772 272 772Q253 773 243 785Z" />
<glyph unicode="&#xd7;" glyph-name="multiply" horiz-adv-x="418" d="M257 281L345 183Q319 157 309 149T292 140Q290 140 284 144L209 228L133 144Q127 140 125 140Q118 140 108 148T72 183L160 281L71 381Q76 386 90 399T111 418T124 423Q129 423 133 419L209
335L284 419Q288 423 293 423Q300 423 308 416T329 398T346 381L257 281Z" />
<glyph unicode="&#xd8;" glyph-name="Oslash" horiz-adv-x="436" d="M415 685T381 585Q403 506 403 357Q403 220 383 140T322 25T214 -10Q174 -10 145 0T94 35Q81 -1 73 -16Q59 -16 43 -9T24 9Q23 12 35 44T59 102Q33 183 33 354Q33 486 53 564T114 676T222 710Q262
710 291 699T341 664Q359 712 363 719Q367 719 378 717T401 709T414 694Q415 685 381 585ZM186 628T165 600T134 507T124 334Q124 228 132 176L281 599Q261 628 222 628Q186 628 165 600ZM247 73T269 95T303 178T315 355Q315 463 307 516Q249 349 157 98Q176 73
211 73Q247 73 269 95Z" />
<glyph unicode="&#xd9;" glyph-name="Ugrave" horiz-adv-x="437" d="M148 -10T109 18T57 91T44 205V683Q44 692 47 695T71 699T127 700V202Q127 133 146 99T224 65Q249 65 274 70T312 82V683Q312 692 316 695T340 699T394 700V26Q373 12 326 1T224 -10Q148 -10
109 18ZM253 768T202 804T140 855Q144 877 154 896T177 916Q184 916 232 875T311 798Q310 795 306 784T295 763T280 753Q253 768 202 804Z" />
<glyph unicode="&#xda;" glyph-name="Uacute" horiz-adv-x="437" d="M148 -10T109 18T57 91T44 205V683Q44 692 47 695T71 699T127 700V202Q127 133 146 99T224 65Q249 65 274 70T312 82V683Q312 692 316 695T340 699T394 700V26Q373 12 326 1T224 -10Q148 -10
109 18ZM163 760T156 770T145 791T140 805Q172 841 219 881T274 922Q287 922 297 903T311 861Q299 848 248 811T171 760Q163 760 156 770Z" />
<glyph unicode="&#xdb;" glyph-name="Ucircumflex" horiz-adv-x="437" d="M148 -10T109 18T57 91T44 205V683Q44 692 47 695T71 699T127 700V202Q127 133 146 99T224 65Q249 65 274 70T312 82V683Q312 692 316 695T340 699T394 700V26Q373 12 326 1T224 -10Q148
-10 109 18ZM279 770T255 796T222 838Q218 832 203 814T172 779T147 762Q111 762 92 785L206 908Q214 911 223 911Q237 911 248 899Q255 892 278 867T323 817T345 784Q345 774 328 768T288 761Q279 770 255 796Z" />
<glyph unicode="&#xdc;" glyph-name="Udieresis" horiz-adv-x="437" d="M148 -10T109 18T57 91T44 205V683Q44 692 47 695T71 699T127 700V202Q127 133 146 99T224 65Q249 65 274 70T312 82V683Q312 692 316 695T340 699T394 700V26Q373 12 326 1T224 -10Q148
-10 109 18ZM137 773T128 786T118 832Q118 859 129 874T162 889Q184 889 192 877T201 834Q201 804 190 788T157 772Q137 773 128 786ZM257 773T247 785T237 828Q237 889 281 889Q303 889 311 877T320 834Q318 772 276 772Q257 773 247 785Z" />
<glyph unicode="&#xdd;" glyph-name="Yacute" horiz-adv-x="364" d="M225 16Q225 7 222 4T198 1T144 0V285L6 687Q4 694 8 696T35 699T97 700L137 563Q152 516 168 446T187 353Q189 375 206 445T238 563L273 685Q275 693 279 696T304 699T360 700L225 290V16ZM126
760T119 770T108 791T103 805Q135 841 182 881T237 922Q250 922 260 903T274 861Q262 848 211 811T134 760Q126 760 119 770Z" />
<glyph unicode="&#xde;" glyph-name="Thorn" horiz-adv-x="361" d="M44 680Q44 693 54 696T98 700H124V566H159Q254 566 298 519T343 369Q343 253 293 202T160 150H124V16Q124 7 120 4T96 1T44 0V680ZM212 225T233 260T254 378Q254 435 236 465T174 495Q139 495
124 493V228Q131 228 144 227T168 225Q212 225 233 260Z" />
<glyph unicode="&#xdf;" glyph-name="germandbls" horiz-adv-x="465" d="M65 -9T52 -4T39 2Q40 4 42 13T47 38T50 74L48 550Q48 629 90 667T208 705Q277 705 322 685T388 631T409 561Q409 529 394 510T348 467Q323 449 312 436T300 403Q300 385 313 368T355 325Q387
294 407 270T441 213T456 138Q456 70 416 31T306 -9Q269 -9 242 -2T201 15T187 36Q187 69 208 90Q217 81 238 72T288 63Q324 63 345 82T366 137Q366 172 347 201T288 270Q250 309 231 337T212 399Q212 432 228 452T276 497Q300 515 311 528T323 560Q323 589 295
609T214 630Q166 630 148 601T129 504L131 44Q131 14 122 3T84 -9Q65 -9 52 -4Z" />
<glyph unicode="&#xe0;" glyph-name="agrave" horiz-adv-x="354" d="M102 -10T66 20T29 142Q29 237 65 271T163 306Q210 306 236 293V372Q236 406 221 419T174 432Q138 432 101 426T41 409Q30 430 30 456Q30 476 41 483Q56 493 99 501T194 510Q259 510 288 482T317
388V335Q317 115 311 24Q287 9 250 0T166 -10Q102 -10 66 20ZM196 58T211 63T233 74Q236 108 236 236Q217 246 189 246Q153 246 133 225T113 144Q113 93 129 76T180 58Q196 58 211 63ZM209 568T158 604T96 655Q100 677 110 696T133 716Q140 716 188 675T267 598Q266
595 262 584T251 563T236 553Q209 568 158 604Z" />
<glyph unicode="&#xe1;" glyph-name="aacute" horiz-adv-x="354" d="M102 -10T66 20T29 142Q29 237 65 271T163 306Q210 306 236 293V372Q236 406 221 419T174 432Q138 432 101 426T41 409Q30 430 30 456Q30 476 41 483Q56 493 99 501T194 510Q259 510 288 482T317
388V335Q317 115 311 24Q287 9 250 0T166 -10Q102 -10 66 20ZM196 58T211 63T233 74Q236 108 236 236Q217 246 189 246Q153 246 133 225T113 144Q113 93 129 76T180 58Q196 58 211 63ZM119 560T112 570T101 591T96 605Q128 641 175 681T230 722Q243 722 253 703T267
661Q255 648 204 611T127 560Q119 560 112 570Z" />
<glyph unicode="&#xe2;" glyph-name="acircumflex" horiz-adv-x="354" d="M102 -10T66 20T29 142Q29 237 65 271T163 306Q210 306 236 293V372Q236 406 221 419T174 432Q138 432 101 426T41 409Q30 430 30 456Q30 476 41 483Q56 493 99 501T194 510Q259 510 288
482T317 388V335Q317 115 311 24Q287 9 250 0T166 -10Q102 -10 66 20ZM196 58T211 63T233 74Q236 108 236 236Q217 246 189 246Q153 246 133 225T113 144Q113 93 129 76T180 58Q196 58 211 63ZM235 570T211 596T178 638Q174 632 159 614T128 579T103 562Q67 562
48 585L162 708Q170 711 179 711Q193 711 204 699Q211 692 234 667T279 617T301 584Q301 574 284 568T244 561Q235 570 211 596Z" />
<glyph unicode="&#xe3;" glyph-name="atilde" horiz-adv-x="354" d="M102 -10T66 20T29 142Q29 237 65 271T163 306Q210 306 236 293V372Q236 406 221 419T174 432Q138 432 101 426T41 409Q30 430 30 456Q30 476 41 483Q56 493 99 501T194 510Q259 510 288 482T317
388V335Q317 115 311 24Q287 9 250 0T166 -10Q102 -10 66 20ZM196 58T211 63T233 74Q236 108 236 236Q217 246 189 246Q153 246 133 225T113 144Q113 93 129 76T180 58Q196 58 211 63ZM194 563T183 570T161 590Q151 601 144 606T126 611Q112 611 103 604T83 585T67
572Q57 572 49 581T35 599T28 612Q52 651 81 669T141 687Q156 687 165 681T186 663Q197 651 206 645T228 639Q248 639 258 646T278 666T293 678Q301 678 307 668T317 647T322 633Q318 624 303 608T265 577T214 563Q194 563 183 570Z" />
<glyph unicode="&#xe4;" glyph-name="adieresis" horiz-adv-x="354" d="M102 -10T66 20T29 142Q29 237 65 271T163 306Q210 306 236 293V372Q236 406 221 419T174 432Q138 432 101 426T41 409Q30 430 30 456Q30 476 41 483Q56 493 99 501T194 510Q259 510 288
482T317 388V335Q317 115 311 24Q287 9 250 0T166 -10Q102 -10 66 20ZM196 58T211 63T233 74Q236 108 236 236Q217 246 189 246Q153 246 133 225T113 144Q113 93 129 76T180 58Q196 58 211 63ZM93 573T84 586T74 632Q74 659 85 674T118 689Q140 689 148 677T157
634Q157 604 146 588T113 572Q93 573 84 586ZM213 573T203 585T193 628Q193 689 237 689Q259 689 267 677T276 634Q274 572 232 572Q213 573 203 585Z" />
<glyph unicode="&#xe5;" glyph-name="aring" horiz-adv-x="354" d="M102 -10T66 20T29 142Q29 237 65 271T163 306Q210 306 236 293V372Q236 406 221 419T174 432Q138 432 101 426T41 409Q30 430 30 456Q30 476 41 483Q56 493 99 501T194 510Q259 510 288 482T317
388V335Q317 115 311 24Q287 9 250 0T166 -10Q102 -10 66 20ZM196 58T211 63T233 74Q236 108 236 236Q217 246 189 246Q153 246 133 225T113 144Q113 93 129 76T180 58Q196 58 211 63ZM125 543T102 564T79 639Q79 688 105 712T179 737Q227 737 249 716T271 640Q271
592 246 568T172 543Q125 543 102 564ZM215 597T215 640Q215 662 206 671T179 681Q136 681 136 638Q136 618 145 608T174 597Q215 597 215 640Z" />
<glyph unicode="&#xe6;" glyph-name="ae" horiz-adv-x="583" d="M478 69T532 100Q539 79 539 28Q539 21 520 13T468 -2T401 -9Q367 -9 344 -3T302 20Q255 -9 164 -9Q122 -9 94 1T47 46T29 148Q29 319 160 319Q210 319 236 306V378Q236 412 218 425T168 438Q93
438 42 411Q32 429 32 459Q32 466 35 472T42 483Q58 494 98 502T197 510Q238 510 262 497T296 453Q317 487 346 498T418 510Q545 510 545 351Q545 270 534 220Q497 214 445 214Q383 214 324 225Q324 157 333 124T360 80T410 69Q478 69 532 100ZM376 439T354 406T326
289Q388 277 426 277Q446 277 462 280Q467 303 467 342Q466 397 454 418T409 439Q376 439 354 406ZM236 250Q217 258 189 258Q154 258 134 235T113 149Q113 110 121 90T142 64T178 58Q195 58 212 62T236 74V250Z" />
<glyph unicode="&#xe7;" glyph-name="ccedilla" horiz-adv-x="313" d="M227 62T248 68T284 85Q292 56 292 41Q292 20 262 6T184 -10L174 -59Q175 -58 191 -58Q211 -58 225 -74T240 -122Q240 -160 218 -183T160 -206Q141 -206 123 -200T104 -193Q105 -188 109 -172T117
-152Q120 -149 135 -156T162 -163Q193 -163 193 -129Q193 -95 163 -95Q147 -95 136 -97T122 -101L139 -7Q102 -1 79 23T43 99T31 239Q31 400 81 455T210 510Q246 510 270 497T294 465Q294 442 285 420Q251 439 214 439Q170 439 142 399T114 238Q114 169 123 131T152
77T204 62Q227 62 248 68Z" />
<glyph unicode="&#xe8;" glyph-name="egrave" horiz-adv-x="361" d="M267 68T321 100Q328 78 328 45Q328 22 288 6T190 -10Q139 -10 105 9T50 79T30 224Q30 341 54 404T117 488T207 510Q334 510 334 350Q334 270 323 220Q279 211 221 208T113 204Q115 150 125
121T155 80T207 68Q267 68 321 100ZM162 439T140 402T114 268Q213 268 251 280Q256 303 256 340Q255 396 243 417T198 439Q162 439 140 402ZM223 568T172 604T110 655Q114 677 124 696T147 716Q154 716 202 675T281 598Q280 595 276 584T265 563T250 553Q223 568
172 604Z" />
<glyph unicode="&#xe9;" glyph-name="eacute" horiz-adv-x="361" d="M267 68T321 100Q328 78 328 45Q328 22 288 6T190 -10Q139 -10 105 9T50 79T30 224Q30 341 54 404T117 488T207 510Q334 510 334 350Q334 270 323 220Q279 211 221 208T113 204Q115 150 125
121T155 80T207 68Q267 68 321 100ZM162 439T140 402T114 268Q213 268 251 280Q256 303 256 340Q255 396 243 417T198 439Q162 439 140 402ZM133 560T126 570T115 591T110 605Q142 641 189 681T244 722Q257 722 267 703T281 661Q269 648 218 611T141 560Q133 560
126 570Z" />
<glyph unicode="&#xea;" glyph-name="ecircumflex" horiz-adv-x="361" d="M267 68T321 100Q328 78 328 45Q328 22 288 6T190 -10Q139 -10 105 9T50 79T30 224Q30 341 54 404T117 488T207 510Q334 510 334 350Q334 270 323 220Q279 211 221 208T113 204Q115 150
125 121T155 80T207 68Q267 68 321 100ZM162 439T140 402T114 268Q213 268 251 280Q256 303 256 340Q255 396 243 417T198 439Q162 439 140 402ZM249 570T225 596T192 638Q188 632 173 614T142 579T117 562Q81 562 62 585L176 708Q184 711 193 711Q207 711 218
699Q225 692 248 667T293 617T315 584Q315 574 298 568T258 561Q249 570 225 596Z" />
<glyph unicode="&#xeb;" glyph-name="edieresis" horiz-adv-x="361" d="M267 68T321 100Q328 78 328 45Q328 22 288 6T190 -10Q139 -10 105 9T50 79T30 224Q30 341 54 404T117 488T207 510Q334 510 334 350Q334 270 323 220Q279 211 221 208T113 204Q115 150 125
121T155 80T207 68Q267 68 321 100ZM162 439T140 402T114 268Q213 268 251 280Q256 303 256 340Q255 396 243 417T198 439Q162 439 140 402ZM107 573T98 586T88 632Q88 659 99 674T132 689Q154 689 162 677T171 634Q171 604 160 588T127 572Q107 573 98 586ZM227
573T217 585T207 628Q207 689 251 689Q273 689 281 677T290 634Q288 572 246 572Q227 573 217 585Z" />
<glyph unicode="&#xec;" glyph-name="igrave" horiz-adv-x="175" d="M47 463Q47 482 53 489T75 498T128 500V16Q128 7 125 4T101 1T47 0V463ZM377 568T326 604T264 655Q268 677 278 696T301 716Q308 716 356 675T435 598Q434 595 430 584T419 563T404 553Q377
568 326 604Z" />
<glyph unicode="&#xed;" glyph-name="iacute" horiz-adv-x="175" d="M47 463Q47 482 53 489T75 498T128 500V16Q128 7 125 4T101 1T47 0V463ZM31 560T24 570T13 591T8 605Q40 641 87 681T142 722Q155 722 165 703T179 661Q167 648 116 611T39 560Q31 560 24 570Z" />
<glyph unicode="&#xee;" glyph-name="icircumflex" horiz-adv-x="175" d="M47 463Q47 482 53 489T75 498T128 500V16Q128 7 125 4T101 1T47 0V463ZM147 570T123 596T90 638Q86 632 71 614T40 579T15 562Q-21 562 -40 585L74 708Q82 711 91 711Q105 711 116 699Q123
692 146 667T191 617T213 584Q213 574 196 568T156 561Q147 570 123 596Z" />
<glyph unicode="&#xef;" glyph-name="idieresis" horiz-adv-x="175" d="M47 463Q47 482 53 489T75 498T128 500V16Q128 7 125 4T101 1T47 0V463ZM261 573T252 586T242 632Q242 659 253 674T286 689Q308 689 316 677T325 634Q325 604 314 588T281 572Q261 573 252
586ZM381 573T371 585T361 628Q361 689 405 689Q427 689 435 677T444 634Q442 572 400 572Q381 573 371 585Z" />
<glyph unicode="&#xf0;" glyph-name="eth" horiz-adv-x="408" d="M380 504T380 289Q380 149 344 70T209 -10Q116 -10 73 51T30 257Q30 378 73 443T190 509Q244 509 278 480Q260 547 224 602L129 565Q121 585 116 600T111 623Q111 633 119 637L177 659Q163 675
125 707Q134 724 150 734T183 744Q203 744 213 732Q233 716 257 690L326 717Q334 697 339 682T344 659Q344 649 336 646L300 632Q380 504 380 289ZM263 58T280 116T298 286Q298 349 293 388Q264 437 212 437Q163 437 138 383T112 244Q112 58 207 58Q263 58 280
116Z" />
<glyph unicode="&#xf1;" glyph-name="ntilde" horiz-adv-x="383" d="M45 476Q76 490 121 500T204 510Q282 510 313 480T344 376V16Q344 7 340 4T316 1T261 0V352Q261 402 249 421T201 440Q183 440 162 436T126 422V16Q126 7 122 4T98 1T45 0V476ZM211 563T200
570T178 590Q168 601 161 606T143 611Q129 611 120 604T100 585T84 572Q74 572 66 581T52 599T45 612Q69 651 98 669T158 687Q173 687 182 681T203 663Q214 651 223 645T245 639Q265 639 275 646T295 666T310 678Q318 678 324 668T334 647T339 633Q335 624 320
608T282 577T231 563Q211 563 200 570Z" />
<glyph unicode="&#xf2;" glyph-name="ograve" horiz-adv-x="376" d="M128 -10T95 9T45 84T27 250Q27 510 194 510Q249 510 282 488T332 409T349 252Q349 116 308 53T184 -10Q128 -10 95 9ZM222 58T241 100T261 252Q261 330 254 371T231 427T191 442Q154 442 135
400T115 248Q115 168 123 127T146 72T186 58Q222 58 241 100ZM224 568T173 604T111 655Q115 677 125 696T148 716Q155 716 203 675T282 598Q281 595 277 584T266 563T251 553Q224 568 173 604Z" />
<glyph unicode="&#xf3;" glyph-name="oacute" horiz-adv-x="376" d="M128 -10T95 9T45 84T27 250Q27 510 194 510Q249 510 282 488T332 409T349 252Q349 116 308 53T184 -10Q128 -10 95 9ZM222 58T241 100T261 252Q261 330 254 371T231 427T191 442Q154 442 135
400T115 248Q115 168 123 127T146 72T186 58Q222 58 241 100ZM134 560T127 570T116 591T111 605Q143 641 190 681T245 722Q258 722 268 703T282 661Q270 648 219 611T142 560Q134 560 127 570Z" />
<glyph unicode="&#xf4;" glyph-name="ocircumflex" horiz-adv-x="376" d="M128 -10T95 9T45 84T27 250Q27 510 194 510Q249 510 282 488T332 409T349 252Q349 116 308 53T184 -10Q128 -10 95 9ZM222 58T241 100T261 252Q261 330 254 371T231 427T191 442Q154 442
135 400T115 248Q115 168 123 127T146 72T186 58Q222 58 241 100ZM250 570T226 596T193 638Q189 632 174 614T143 579T118 562Q82 562 63 585L177 708Q185 711 194 711Q208 711 219 699Q226 692 249 667T294 617T316 584Q316 574 299 568T259 561Q250 570 226 596Z"
/>
<glyph unicode="&#xf5;" glyph-name="otilde" horiz-adv-x="376" d="M128 -10T95 9T45 84T27 250Q27 510 194 510Q249 510 282 488T332 409T349 252Q349 116 308 53T184 -10Q128 -10 95 9ZM222 58T241 100T261 252Q261 330 254 371T231 427T191 442Q154 442 135
400T115 248Q115 168 123 127T146 72T186 58Q222 58 241 100ZM209 563T198 570T176 590Q166 601 159 606T141 611Q127 611 118 604T98 585T82 572Q72 572 64 581T50 599T43 612Q67 651 96 669T156 687Q171 687 180 681T201 663Q212 651 221 645T243 639Q263 639
273 646T293 666T308 678Q316 678 322 668T332 647T337 633Q333 624 318 608T280 577T229 563Q209 563 198 570Z" />
<glyph unicode="&#xf6;" glyph-name="odieresis" horiz-adv-x="376" d="M128 -10T95 9T45 84T27 250Q27 510 194 510Q249 510 282 488T332 409T349 252Q349 116 308 53T184 -10Q128 -10 95 9ZM222 58T241 100T261 252Q261 330 254 371T231 427T191 442Q154 442
135 400T115 248Q115 168 123 127T146 72T186 58Q222 58 241 100ZM108 573T99 586T89 632Q89 659 100 674T133 689Q155 689 163 677T172 634Q172 604 161 588T128 572Q108 573 99 586ZM228 573T218 585T208 628Q208 689 252 689Q274 689 282 677T291 634Q289 572
247 572Q228 573 218 585Z" />
<glyph unicode="&#xf7;" glyph-name="divide" horiz-adv-x="418" d="M181 376T170 389T159 427Q159 448 172 463T208 478Q258 478 258 427Q258 405 245 391T208 376Q181 376 170 389ZM34 290T36 303T51 317H384Q384 275 382 261T368 247H34Q34 290 36 303ZM181
81T170 94T159 132Q159 153 172 168T208 183Q258 183 258 132Q258 110 245 96T208 81Q181 81 170 94Z" />
<glyph unicode="&#xf8;" glyph-name="oslash" horiz-adv-x="412" d="M403 484T388 454T356 395Q369 343 369 252Q369 116 329 53T207 -10Q167 -10 140 -2T93 29L62 -26Q46 -23 32 -14T17 8Q17 14 63 92Q48 149 48 250Q48 510 213 510Q250 510 277 501T323 468Q351
515 357 522Q360 521 371 517T393 506T403 489Q403 484 388 454ZM174 440T155 399T135 248Q135 216 137 176L266 404Q257 425 244 432T211 440Q174 440 155 399ZM243 58T262 100T282 252Q282 298 279 331Q275 323 194 179L150 101Q158 76 172 67T207 58Q243 58
262 100Z" />
<glyph unicode="&#xf9;" glyph-name="ugrave" horiz-adv-x="389" d="M135 -10T103 8T58 61T45 156V484Q45 493 48 496T72 499T128 500V149Q128 98 141 79T196 60Q236 60 263 79V484Q263 493 267 496T290 499T344 500V26Q314 10 274 0T194 -10Q135 -10 103 8ZM229
568T178 604T116 655Q120 677 130 696T153 716Q160 716 208 675T287 598Q286 595 282 584T271 563T256 553Q229 568 178 604Z" />
<glyph unicode="&#xfa;" glyph-name="uacute" horiz-adv-x="389" d="M135 -10T103 8T58 61T45 156V484Q45 493 48 496T72 499T128 500V149Q128 98 141 79T196 60Q236 60 263 79V484Q263 493 267 496T290 499T344 500V26Q314 10 274 0T194 -10Q135 -10 103 8ZM139
560T132 570T121 591T116 605Q148 641 195 681T250 722Q263 722 273 703T287 661Q275 648 224 611T147 560Q139 560 132 570Z" />
<glyph unicode="&#xfb;" glyph-name="ucircumflex" horiz-adv-x="389" d="M135 -10T103 8T58 61T45 156V484Q45 493 48 496T72 499T128 500V149Q128 98 141 79T196 60Q236 60 263 79V484Q263 493 267 496T290 499T344 500V26Q314 10 274 0T194 -10Q135 -10 103
8ZM255 570T231 596T198 638Q194 632 179 614T148 579T123 562Q87 562 68 585L182 708Q190 711 199 711Q213 711 224 699Q231 692 254 667T299 617T321 584Q321 574 304 568T264 561Q255 570 231 596Z" />
<glyph unicode="&#xfc;" glyph-name="udieresis" horiz-adv-x="389" d="M135 -10T103 8T58 61T45 156V484Q45 493 48 496T72 499T128 500V149Q128 98 141 79T196 60Q236 60 263 79V484Q263 493 267 496T290 499T344 500V26Q314 10 274 0T194 -10Q135 -10 103 8ZM113
573T104 586T94 632Q94 659 105 674T138 689Q160 689 168 677T177 634Q177 604 166 588T133 572Q113 573 104 586ZM233 573T223 585T213 628Q213 689 257 689Q279 689 287 677T296 634Q294 572 252 572Q233 573 223 585Z" />
<glyph unicode="&#xfd;" glyph-name="yacute" horiz-adv-x="357" d="M-4 -193T-4 -154Q-4 -142 -1 -130T8 -109Q18 -116 35 -120T71 -124Q97 -124 115 -100T144 -16L24 478Q22 486 22 489Q22 497 35 498T102 500L157 260Q167 211 174 156T184 83Q186 99 192 154T208
261L253 477Q255 490 259 494T279 499T340 500L217 -27Q202 -91 184 -127T140 -178T77 -193Q-4 -193 -4 -154ZM122 560T115 570T104 591T99 605Q131 641 178 681T233 722Q246 722 256 703T270 661Q258 648 207 611T130 560Q122 560 115 570Z" />
<glyph unicode="&#xfe;" glyph-name="thorn" d="M273 509T314 463T355 300Q355 123 309 57T203 -10Q153 -10 127 16V-194Q108 -200 79 -200Q58 -200 52 -194T46 -166V698Q46 717 52 724T74 733T127 735V502Q156 509 192 509Q273 509 314 463ZM212 60T239 109T266
293Q266 354 257 385T232 428T188 439Q154 439 127 418V88Q143 59 178 59Q212 60 239 109Z" />
<glyph unicode="&#xff;" glyph-name="ydieresis" horiz-adv-x="357" d="M-4 -193T-4 -154Q-4 -142 -1 -130T8 -109Q18 -116 35 -120T71 -124Q97 -124 115 -100T144 -16L24 478Q22 486 22 489Q22 497 35 498T102 500L157 260Q167 211 174 156T184 83Q186 99 192
154T208 261L253 477Q255 490 259 494T279 499T340 500L217 -27Q202 -91 184 -127T140 -178T77 -193Q-4 -193 -4 -154ZM96 573T87 586T77 632Q77 659 88 674T121 689Q143 689 151 677T160 634Q160 604 149 588T116 572Q96 573 87 586ZM216 573T206 585T196 628Q196
689 240 689Q262 689 270 677T279 634Q277 572 235 572Q216 573 206 585Z" />
<glyph unicode="&#x2013;" glyph-name="endash" horiz-adv-x="424" d="M37 290T39 303T54 317H387Q387 275 385 261T371 247H37Q37 290 39 303Z" />
<glyph unicode="&#x2014;" glyph-name="emdash" horiz-adv-x="700" d="M6 290T8 303T22 317H694Q694 275 692 261T678 247H6Q6 290 8 303Z" />
<glyph unicode="&#x2018;" glyph-name="quoteleft" horiz-adv-x="174" d="M34 575T34 634Q34 668 48 705T80 769T108 795Q135 795 140 772Q127 747 122 725T115 676Q138 661 138 627Q138 605 124 590T88 575Q34 575 34 634Z" />
<glyph unicode="&#x2019;" glyph-name="quoteright" horiz-adv-x="174" d="M41 572T34 595Q48 621 52 642T59 692Q36 706 36 740Q36 763 50 777T86 792Q141 792 141 733Q141 699 127 662T94 598T66 572Q41 572 34 595Z" />
<glyph unicode="&#x201a;" glyph-name="quotesinglbase" horiz-adv-x="170" d="M41 -114T34 -91Q48 -66 52 -45T59 5Q36 19 36 54Q36 76 50 91T86 106Q141 106 141 47Q141 13 127 -24T94 -88T66 -114Q41 -114 34 -91Z" />
<glyph unicode="&#x201c;" glyph-name="quotedblleft" horiz-adv-x="324" d="M34 575T34 634Q34 668 48 705T80 769T108 795Q135 795 140 772Q127 747 122 725T115 676Q138 661 138 627Q138 605 124 590T88 575Q34 575 34 634ZM184 575T184 634Q184 668 198 705T230
769T258 795Q285 795 290 772Q276 747 272 726T265 676Q288 661 288 627Q288 605 274 590T238 575Q184 575 184 634Z" />
<glyph unicode="&#x201d;" glyph-name="quotedblright" horiz-adv-x="324" d="M41 572T34 595Q48 621 52 642T59 692Q36 706 36 740Q36 763 50 777T86 792Q141 792 141 733Q141 699 127 662T94 598T66 572Q41 572 34 595ZM189 572T184 595Q198 621 202 642T209
692Q186 706 186 740Q186 763 200 777T236 792Q291 792 291 733Q291 699 277 662T244 598T216 572Q189 572 184 595Z" />
<glyph unicode="&#x201e;" glyph-name="quotedblbase" horiz-adv-x="321" d="M41 -114T34 -91Q48 -66 52 -45T59 5Q36 19 36 54Q36 76 50 91T86 106Q141 106 141 47Q141 13 127 -24T94 -88T66 -114Q41 -114 34 -91ZM189 -114T184 -91Q198 -66 202 -45T209 5Q186
19 186 54Q186 76 200 91T236 106Q291 106 291 47Q291 13 277 -24T244 -88T216 -114Q189 -114 184 -91Z" />
<glyph unicode="&#x2022;" glyph-name="bullet" horiz-adv-x="223" d="M75 208T58 227T41 284Q41 316 61 338T114 361Q153 361 171 341T189 284Q189 251 169 230T114 208Q75 208 58 227Z" />
<glyph unicode="&#x2039;" glyph-name="guilsinglleft" horiz-adv-x="247" d="M156 16T120 69T51 178T18 250Q18 265 50 320T118 430T164 500Q178 500 188 491T205 472T212 459Q212 442 186 396T132 306T94 250Q103 238 132 196T187 109T214 47Q213 43 207 32T191
11T167 0Q156 16 120 69Z" />
<glyph unicode="&#x203a;" glyph-name="guilsinglright" horiz-adv-x="247" d="M77 1T66 6T44 21T33 46Q33 62 59 107T115 195T153 250Q144 263 116 306T61 395T35 459Q35 471 45 480T67 494T83 500Q94 484 129 430T196 321T229 250Q229 234 196 179T128 70T81
0Q77 1 66 6Z" />
</font>
</defs>
</svg>
