<?xml version="1.0" encoding="UTF-8"?><svg id="svg33" width="64" height="64" style="clip-rule:evenodd;fill-rule:evenodd;stroke-linejoin:round;stroke-miterlimit:1.4142" version="1.1" viewBox="0 0 64 64" xml:space="preserve" xmlns="http://www.w3.org/2000/svg"><g id="g864" transform="matrix(.10228 0 0 .10228 2.441 6.0098e-5)"><g id="g4" transform="matrix(4.1667 0 0 4.1667 -301.27 -2392.2)"><path id="path2" d="m210.35 607.22c-.34-2.106-.842-4.303-1.491-6.591-1.537-5.441-4.918-10.074-9.506-13.854-1.205-1.001-2.503-1.946-3.88-2.823-5.293-3.381-11.692-5.851-18.522-7.32-4.588-.99-9.367-1.525-14.139-1.593-34.662-.774-56.234.387-90.373-.911.012.023.012.046.022.068 1.56 1.264 3.154 2.471 4.782 3.643 3.573 2.584 7.297 4.952 11.155 7.127 7.184 4.04 14.845 7.342 22.859 9.801.956.295 1.912.58 2.87.842 5.6.603 10.631 1.206 14.648 3.074 1.015.455 1.959 1.001 2.835 1.639 2.87 2.106 6.057 6.124 8.152 8.936 4.497 5.999 3.551 10.928 8.88 13.887.557.308 1.182.604 1.889.866 1.696.638 4.119 1.491 5.225-.91.16-.342.283-.764.387-1.264-.446-1.434-1.981-2.675-2.905-3.29-1.638-1.07-2.287-1.719-3.47-2.937-2.186-2.243-2.333-6.056-3.871-8.708 1.935-.82 12.146-2.186 14.287-1.89 4.576.204 8.185.557 10.939 3.392 1.08.854 1.672 1.594 2.652 2.334.069.057.125.114.194.159 4.338 3.153 8.343 4.28 11.894 5.362.936.284 1.822.558 2.69.876 1.332.478 2.582 1.048 3.754 1.81 1.39.922 3.748 3.336 3.849 5.419-3.496-1.116-1.185.296-6.342-.102-2.515-.285-5.087-.456-7.671-.638-4.018-.284-8.038-.581-11.805-1.297-.627-.115-1.254-.251-1.867-.399-.479-.102-.946-.227-1.401-.353-.011.193-.021.376-.021.546-.104 3.939 2.674 5.908-3.678 13.399-.057.08-.137.159-.205.25-1.686 1.97-10.449 5.715-13.182 6.432-11.634 2.334-20.502-5.237-34.515-1.423-4.929 1.833-8.549 9.824-10.815 15.8-3.016 7.936-5.406 17.576-8.139 27.06 5.329-.797 10.53-1.936 15.585-3.427 11.167-3.279 21.651-8.185 31.168-14.445.911-1.231 1.912-2.29 2.994-3.108.284-.217.58-.422.877-.603.215-.137.956-.286 2.127-.502 10.861-1.924 58.5-8.377 61.597-42.962.319-3.494.172-7.285-.513-11.372zm-106.94 18.59c-6.375-1.924-8.003-2.243-12.055-5.385.067.33.17.695.307 1.081 10.779 6.068 22.608 10.462 35.141 12.842-3.893-9.051-8.502-7.445-23.393-8.538zm29.518-4.099c-2.779-6.738-10.313-10.575-16.813-12.464-8.721-3.12-15.061-.125-33.458-8.811.147.239.284.467.432.694 3.575 2.584 7.297 4.963 11.157 7.126 7.184 4.041 14.844 7.343 22.857 9.802 4.167.489 8.175 1.184 11.863 2.96 1.639.773 3.21 1.764 4.702 3.039-.183-.82-.434-1.605-.74-2.346z" style="fill-rule:nonzero;fill:url(#_Linear1)"/></g><g id="g8" transform="matrix(4.1667 0 0 4.1667 -301.27 -2392.2)"><path id="path6" d="m114.13 595.61c-.958-.262-1.914-.547-2.87-.842-8.014-2.459-15.675-5.761-22.859-9.801-3.858-2.175-7.582-4.543-11.155-7.127-1.628-1.172-3.222-2.379-4.782-3.643 2.14 6.603 11.634 13.57 18.078 16.313 8.218 3.495 16.381 4.303 23.588 5.1z" style="fill:#90d4d1"/></g><g id="g12" transform="matrix(4.1667 0 0 4.1667 -301.27 -2392.2)"><path id="path10" d="m94.253 608.25c-3.86-2.163-7.582-4.542-11.157-7.126 10.006 15.823 22.575 15.584 34.014 16.928-8.013-2.459-15.673-5.761-22.857-9.802z" style="fill:#90d4d1"/></g><g id="g16" transform="matrix(4.1667 0 0 4.1667 -301.27 -2392.2)"><path id="path14" d="m126.81 634.34c-12.533-2.38-24.362-6.774-35.141-12.842 1.376 3.973 6.351 10.257 12.943 11.658 2.858 1.024 2.094.762 6.967.614 7.137-.364 10.552-.592 15.608 1.469-.126-.308-.251-.604-.377-.899z" style="fill:#90d4d1"/></g><g id="g20" transform="matrix(4.1667 0 0 4.1667 -301.27 -2392.2)"><path id="path18" d="m143.27 665.76c-.081.101-.159.204-.239.318-13.844 14.093-31.179 24.69-50.59 30.393 1.492-4.132 2.824-8.468 4.076-12.839 5.329-.797 10.53-1.936 15.585-3.427 11.167-3.279 21.651-8.185 31.168-14.445z" style="fill:#90d4d1"/></g><g id="g24" transform="matrix(4.1667 0 0 4.1667 -301.27 -2392.2)"><path id="path22" d="m143.03 666.08c-6.046 8.287-9.118 24.122-12.659 33.274-5.144 13.342-12.294 22.95-27.958 24.317-3.928.351-27.582 1.24-30.11-.035.159-1.344 4.098-2.961 5.123-3.747 6.852-4.847 11.416-13.5 15.014-23.416 19.411-5.703 36.746-16.3 50.59-30.393z" style="fill:#14a0c4"/></g></g><defs id="defs31"><linearGradient id="_Linear1" x2="1" gradientTransform="matrix(138.58 0 0 138.58 72.442 628.88)" gradientUnits="userSpaceOnUse"><stop id="stop26" style="stop-color:rgb(84,196,198)" offset="0"/><stop id="stop28" style="stop-color:rgb(18,186,213)" offset="1"/></linearGradient></defs></svg>
